<?xml version="1.0" encoding="UTF-8"?>
<svg id="Capa_1" data-name="Capa 1" xmlns="http://www.w3.org/2000/svg" viewBox="0 0 470 460">
  <defs>
    <style>
      .cls-1 {
        fill: #6558a1;
      }

      .cls-2 {
        fill: #e8437f;
      }
    </style>
  </defs>
  <path class="cls-1" d="M321.53,148.89c0,8.29-3.37,15.81-8.81,21.26-5.46,5.44-12.96,8.8-21.27,8.8H109.11v199.52c0,16.62-13.48,30.1-30.1,30.1s-30.09-13.48-30.09-30.1v-229.58c0-16.62,13.47-30.09,30.09-30.09h212.43c16.62,0,30.09,13.47,30.09,30.09Z"/>
  <path class="cls-2" d="M402.96,394.94c-9.24,13.97-28.06,17.81-42.04,8.57l-31.98-21.16-155.32-102.74c-.2-.13-.37-.28-.52-.43,10.61-2.74,20.4-8.92,27.57-18.28,6.69-8.78,10.09-19.05,10.38-29.29.01-.48.02-.98.02-1.46,0-10.64-3.34-21.21-9.83-30.03h59.08c12.55.04,25.11.08,37.66.11,26.17-2.57,46.32-24.81,46.31-50.95,0-30.82-27.96-49.42-46.63-50.95-2.38-.2-4.15-.22-4.54-.22-20.65.47-97.98.49-212.37.22-16.62,0-30.09-13.47-30.09-30.09,0-8.32,3.37-15.82,8.8-21.28,5.46-5.45,12.97-8.81,21.28-8.81h208.14c2.25-.15,4.52-.21,6.8-.21,61.48,0,111.34,49.85,111.34,111.34s-47.68,109.14-107.29,111.27c-1.34.07-2.7.09-4.06.09h-40.75l139.45,92.24c13.97,9.24,17.81,28.06,8.56,42.04Z"/>
  <circle class="cls-1" cx="158.63" cy="233.41" r="30.17"/>
</svg>