<?xml version="1.0" encoding="UTF-8"?>
<svg id="Capa_1" data-name="Capa 1" xmlns="http://www.w3.org/2000/svg" viewBox="0 0 723.49 221">
  <defs>
    <style>
      .cls-1 {
        fill: #6558a1;
      }

      .cls-2 {
        fill: #e8437f;
      }
    </style>
  </defs>
  <path class="cls-1" d="M262.42,82.42c0,.73-.11,2.76-.31,6.1-.42,3.54-1.28,5.86-2.58,6.96-1.3,1.09-3.83,1.64-7.58,1.64h-39.7v2.34c0,4.06,1.61,7.06,4.85,8.99,3.23,1.93,8.44,2.89,15.63,2.89,5.32,0,11.62-.73,18.91-2.19,3.33-.73,5.55-.57,6.64.47,1.09,1.04,1.64,3.39,1.64,7.03v1.72c0,3.44-.52,5.78-1.56,7.03-1.04,1.25-3.28,2.29-6.72,3.13-4.79,1.35-11.15,2.03-19.07,2.03-14.07,0-24.38-2.74-30.95-8.21-6.57-5.47-9.85-14.15-9.85-26.03v-12.51c0-23.45,12.14-35.17,36.42-35.17,22.82,0,34.23,11.25,34.23,33.76ZM212.25,78.2v2.34h30.79v-2.34c0-7.92-5.16-11.88-15.48-11.88s-15.32,3.96-15.32,11.88Z"/>
  <path class="cls-1" d="M291.79,82.11v39.7c0,3.54-.57,5.89-1.72,7.03-1.15,1.15-3.49,1.72-7.04,1.72h-2.97c-3.54,0-5.89-.57-7.03-1.72-1.15-1.15-1.72-3.49-1.72-7.03v-39.7c0-10.32,2.99-18.16,8.99-23.53,5.99-5.37,14.87-8.05,26.65-8.05s21,2.58,26.73,7.74c5.73,5.16,8.6,13.11,8.6,23.84v39.7c0,3.54-.57,5.89-1.72,7.03-1.15,1.15-3.49,1.72-7.03,1.72h-2.97c-3.54,0-5.89-.57-7.04-1.72-1.15-1.15-1.72-3.49-1.72-7.03v-39.7c0-4.69-1.04-7.92-3.13-9.69-2.09-1.77-5.99-2.66-11.72-2.66s-9.69.91-11.88,2.74c-2.19,1.82-3.28,5.03-3.28,9.61Z"/>
  <path class="cls-1" d="M464.74,59.13l10.32,47.21c.62,2.71,1.38,4.48,2.27,5.31.88.83,2.32,1.25,4.3,1.25s3.41-.42,4.3-1.25c.88-.83,1.64-2.6,2.27-5.31l10.32-47.21c.83-3.44,1.95-5.73,3.36-6.88,1.41-1.14,3.83-1.72,7.27-1.72h3.44c3.54,0,5.76.57,6.64,1.72.88,1.15.96,3.44.23,6.88l-11.41,49.55c-1.77,7.5-4.06,12.82-6.88,15.94-3.34,3.96-9.85,5.94-19.54,5.94s-16.26-1.93-19.7-5.78c-2.71-3.33-4.95-8.7-6.72-16.1l-11.41-49.55c-.73-3.44-.65-5.73.23-6.88.88-1.14,3.1-1.72,6.64-1.72h3.44c3.44,0,5.86.57,7.27,1.72,1.41,1.15,2.52,3.44,3.36,6.88Z"/>
  <path class="cls-1" d="M596.67,75.55v29.86c0,8.55-2.76,14.88-8.29,18.99-5.53,4.12-14.07,6.17-25.63,6.17s-20.11-2-25.64-6.02c-5.52-4.01-8.28-10.24-8.28-18.68,0-16.26,10.58-24.39,31.73-24.39h15.79v-5.94c0-3.54-1.25-6.02-3.75-7.43-2.5-1.41-6.67-2.11-12.51-2.11-4.38,0-8.91.31-13.6.94-3.44.52-5.76.29-6.96-.7-1.2-.99-1.8-3.2-1.8-6.64v-.62c0-3.33.55-5.63,1.64-6.88,1.09-1.25,3.36-2.14,6.8-2.66,4.9-.52,9.12-.78,12.66-.78,12.82,0,22.33,2.14,28.53,6.41,6.2,4.27,9.3,11.1,9.3,20.48ZM576.35,104.31v-7.5h-16.1c-7.4,0-11.1,2.87-11.1,8.6.31,3.34,1.46,5.55,3.44,6.64,1.98,1.09,5.26,1.59,9.85,1.48,4.69.11,8.1-.49,10.24-1.8,2.13-1.3,3.36-3.78,3.67-7.43Z"/>
  <path class="cls-1" d="M626.04,80.55v41.27c0,3.54-.57,5.89-1.72,7.03-1.15,1.15-3.49,1.72-7.04,1.72h-2.97c-3.54,0-5.89-.57-7.03-1.72-1.15-1.15-1.72-3.49-1.72-7.03v-42.83c0-9.27,2.76-16.34,8.29-21.18,5.52-4.85,13.6-7.27,24.23-7.27h1.72c3.02,0,5.1.73,6.25,2.19,1.14,1.46,1.72,4.06,1.72,7.81v1.72c0,3.34-.52,5.47-1.56,6.41-1.04.94-3.18,1.3-6.41,1.1h-1.72c-4.59,0-7.74.78-9.46,2.34-1.72,1.56-2.58,4.38-2.58,8.44Z"/>
  <path class="cls-1" d="M392.65,130.57c-8,0-15.12-1.69-21.37-5.08-6.26-3.39-11.17-8.02-14.74-13.9-3.57-5.88-5.36-12.58-5.36-20.1s1.79-14.37,5.36-20.24c3.57-5.88,8.49-10.49,14.74-13.83,6.25-3.34,13.38-5.01,21.37-5.01s15.28,1.67,21.59,5.01c6.3,3.34,11.24,7.95,14.81,13.83,3.57,5.88,5.36,12.63,5.36,20.24s-1.79,14.34-5.36,20.17c-3.58,5.83-8.51,10.44-14.81,13.83-6.3,3.39-13.5,5.08-21.59,5.08ZM392.65,112.51c3.76,0,7.08-.82,9.95-2.47,2.87-1.64,5.17-4.07,6.91-7.27,1.74-3.2,2.61-6.96,2.61-11.29s-.87-8.18-2.61-11.29c-1.74-3.1-4.05-5.48-6.91-7.12-2.87-1.65-6.14-2.47-9.8-2.47s-6.96.82-9.88,2.47c-2.92,1.65-5.24,4.02-6.98,7.12-1.74,3.1-2.61,6.87-2.61,11.29s.87,8.09,2.61,11.29c1.74,3.2,4.07,5.62,6.98,7.27,2.91,1.65,6.16,2.47,9.73,2.47Z"/>
  <g>
    <path class="cls-2" d="M151.05,59.71c0,2.29-.93,4.37-2.44,5.87-1.51,1.5-3.58,2.43-5.88,2.43h-50.39v55.14c0,4.59-3.73,8.32-8.32,8.32s-8.31-3.73-8.31-8.32v-63.44c0-4.59,3.72-8.31,8.31-8.31h58.7c4.59,0,8.31,3.72,8.31,8.31Z"/>
    <path class="cls-1" d="M173.55,127.7c-2.55,3.86-7.75,4.92-11.62,2.37l-8.84-5.85-42.92-28.39c-.05-.03-.1-.08-.14-.12,2.93-.76,5.64-2.46,7.62-5.05,1.85-2.43,2.79-5.27,2.87-8.09,0-.13,0-.27,0-.4,0-2.94-.92-5.86-2.72-8.3h16.33c3.47.01,6.94.02,10.41.03,7.23-.71,12.8-6.86,12.8-14.08,0-8.52-7.73-13.66-12.89-14.08-.66-.05-1.15-.06-1.25-.06-5.71.13-27.08.14-58.69.06-4.59,0-8.31-3.72-8.31-8.31,0-2.3.93-4.37,2.43-5.88,1.51-1.51,3.59-2.44,5.88-2.44h57.52c.62-.04,1.25-.06,1.88-.06,16.99,0,30.77,13.78,30.77,30.77s-13.18,30.16-29.65,30.75c-.37.02-.75.03-1.12.03h-11.26l38.54,25.49c3.86,2.55,4.92,7.75,2.37,11.62Z"/>
    <circle class="cls-2" cx="106.03" cy="83.07" r="8.34"/>
  </g>
  <path class="cls-2" d="M643.72,191.56c-.58.25-1.19.38-1.78.38-1.71,0-3.35-.99-4.08-2.66l-6.6-15.02-6.58,15.03c-.99,2.25-3.61,3.27-5.86,2.29-1.67-.73-2.66-2.36-2.66-4.07,0-.59.13-1.2.38-1.78l10.47-23.9.19-.45c.5-1.15,1.42-1.98,2.52-2.39.1-.04.2-.07.3-.1.1-.03.2-.06.3-.08.06-.01.13-.03.19-.04.05,0,.11-.01.17-.03.09,0,.19-.02.27-.02.2-.01.4-.01.6,0,.09,0,.19.01.27.02.06,0,.11.01.17.03.06,0,.13.02.19.04.11.02.23.05.35.09.09.03.18.06.26.09,1.09.41,2.02,1.23,2.52,2.38l.17.39,10.53,23.94c.99,2.25-.03,4.87-2.29,5.86Z"/>
  <path class="cls-2" d="M151.61,159.67v30.67c0,.88-.72,1.6-1.6,1.6h-5.69c-.88,0-1.6-.72-1.6-1.6v-30.67c0-.88.72-1.6,1.6-1.6h5.69c.88,0,1.6.72,1.6,1.6Z"/>
  <path class="cls-2" d="M216.5,163.05v24.2c0,2.6-2.11,4.7-4.7,4.7-.35,0-.68-.04-1.01-.11-1.1-.16-2.14-.73-2.89-1.65l-11.31-13.84v10.65c0,2.59-2.11,4.7-4.7,4.7s-4.7-2.11-4.7-4.7v-23.82c0-2.6,2.11-4.7,4.7-4.7.72,0,1.4.16,2.01.46.14.07.28.13.42.22.03.02.06.04.08.05.1.07.21.13.31.22.04.02.07.04.1.07.07.06.15.12.22.19.07.05.13.11.19.17.11.1.21.22.3.33.01,0,.03.02.04.04l11.54,14.13v-11.29c0-2.6,2.11-4.7,4.7-4.7,1.3,0,2.47.53,3.32,1.38.85.85,1.38,2.03,1.38,3.32Z"/>
  <path class="cls-2" d="M278.55,191.6c-2.4.97-5.14-.18-6.12-2.58l-5.64-13.87-5.66,13.85c-.98,2.4-3.72,3.55-6.13,2.57-2.4-.98-3.55-3.72-2.57-6.13l9.98-24.43c.04-.1.09-.22.13-.31.04-.09.09-.19.14-.27.03-.07.07-.13.11-.19.04-.08.09-.16.15-.23.05-.07.1-.15.16-.22.07-.08.13-.16.2-.24.06-.07.11-.13.18-.19.06-.07.12-.13.19-.18.06-.05.12-.1.18-.16.07-.06.16-.12.23-.17,0,0,.01,0,.01-.01.09-.06.17-.12.26-.16.22-.13.45-.25.68-.35,0,0,0,0,.01,0,.13-.05.26-.1.39-.14,0,0,.02,0,.03,0,.13-.04.25-.07.38-.1.06,0,.12-.02.18-.03l.77-.07c.18,0,.35,0,.52.04.13,0,.25.03.37.05.3.06.59.15.89.27.1.04.21.09.31.14.02,0,.04.01.05.02.1.05.19.1.29.16s.19.12.28.19c.01,0,.03.01.04.02.09.07.17.13.25.2.09.07.18.15.26.23s.16.16.24.24h.01c.06.09.13.16.19.24.09.12.17.23.25.36.05.08.1.16.15.25.06.1.11.2.16.3.04.07.07.14.1.22l.04.1,9.94,24.45c.98,2.4-.18,5.15-2.58,6.13Z"/>
  <path class="cls-2" d="M346.38,163.05v24.2c0,2.6-2.11,4.7-4.7,4.7-.35,0-.68-.04-1.01-.11-1.1-.16-2.14-.73-2.89-1.65l-11.31-13.84v10.65c0,2.59-2.11,4.7-4.7,4.7s-4.7-2.11-4.7-4.7v-23.82c0-2.6,2.11-4.7,4.7-4.7.72,0,1.4.16,2.01.46.14.07.28.13.42.22.03.02.06.04.08.05.1.07.21.13.31.22.04.02.07.04.1.07.07.06.15.12.22.19.07.05.13.11.19.17.11.1.21.22.3.33.01,0,.03.02.04.04l11.54,14.13v-11.29c0-2.6,2.11-4.7,4.7-4.7,1.3,0,2.47.53,3.32,1.38.85.85,1.38,2.03,1.38,3.32Z"/>
  <path class="cls-2" d="M413.18,181.98c0,.68-.15,1.31-.42,1.89-.01.04-.03.07-.06.1-.22.35-.45.7-.69,1.03-3,4.21-7.92,6.94-13.49,6.94-9.15,0-16.57-7.42-16.57-16.57s7.42-16.58,16.57-16.58c5.1,0,9.67,2.31,12.7,5.93h0c.27.33.53.65.76.99.39.67.62,1.45.62,2.28,0,2.4-1.88,4.38-4.29,4.58-.13.01-.27.02-.41.02-.16,0-.31,0-.47-.02-.28-.03-1.1-.18-1.69-.45-.82-.38-.97-.87-1.94-1.76-.49-.45-1.57-1.45-3.15-1.92-.65-.19-1.34-.3-2.05-.3-4,0-7.23,3.23-7.23,7.23s3.23,7.23,7.23,7.23c1.07,0,1.99-.28,1.99-.28,1.56-.53,2.77-1.76,4.22-3.24.43-.44.69-.73,1.18-1.03.72-.44,1.56-.69,2.47-.69,2.6,0,4.7,2.06,4.7,4.6Z"/>
  <path class="cls-2" d="M457.66,159.67v30.67c0,.88-.72,1.6-1.6,1.6h-5.69c-.88,0-1.6-.72-1.6-1.6v-30.67c0-.88.72-1.6,1.6-1.6h5.69c.88,0,1.6.72,1.6,1.6Z"/>
  <g>
    <path class="cls-2" d="M107.13,162.35v.33c0,2.36-1.91,4.28-4.28,4.28h-18.24v20.54c0,2.46-1.99,4.44-4.44,4.44-1.22,0-2.34-.5-3.15-1.3-.81-.81-1.31-1.92-1.31-3.15v-24.99c0-2.46,2-4.44,4.45-4.44h22.68c2.37,0,4.28,1.92,4.28,4.28Z"/>
    <ellipse class="cls-2" cx="93.27" cy="175.64" rx="4.54" ry="4.45"/>
  </g>
  <path class="cls-2" d="M580.57,162.52c0,1.23-.5,2.34-1.31,3.15-.81.8-1.92,1.3-3.15,1.3h-13.16v20.54c0,2.46-2,4.44-4.45,4.44-1.22,0-2.34-.5-3.15-1.3-.8-.81-1.3-1.92-1.3-3.15v-24.98c0-1.23.5-2.34,1.3-3.15.81-.8,1.92-1.3,3.15-1.3h17.61c2.46,0,4.45,1.99,4.45,4.44Z"/>
  <path class="cls-2" d="M518.47,187.07c0,1.33-.54,2.54-1.4,3.42-.87.87-2.08,1.42-3.41,1.42l-15.48.04c-1.04,0-1.99-.32-2.77-.87-.1-.07-.21-.15-.3-.22-.16-.12-.31-.25-.45-.39-.87-.87-1.41-2.08-1.41-3.41v-24.27c0-.33.03-.64.09-.95.45-2.19,2.39-3.84,4.72-3.85h.33l15.15-.04c2.66,0,4.83,2.15,4.84,4.81v.02c0,2.65-2.16,4.81-4.81,4.82l-10.66.03v2.96l7.89-.03c2.4,0,4.34,1.94,4.35,4.33v.02c0,2.39-1.94,4.32-4.32,4.33l-7.91.02v3.04l10.74-.03c2.67,0,4.84,2.15,4.85,4.81Z"/>
</svg>