<?xml version="1.0" encoding="UTF-8"?>
<!-- Generator: visioncortex VTracer 0.6.4 -->
<svg version="1.1" xmlns="http://www.w3.org/2000/svg" width="500" height="500">
<path d="M0 0 C1.63582031 -0.04350586 1.63582031 -0.04350586 3.3046875 -0.08789062 C13.4214212 -0.16654944 21.55786181 2.13725336 28.99609375 9.21484375 C35.9871465 17.01982364 39.14395216 25.34480466 41.875 35.3125 C42.70926473 37.72182884 43.56873109 40.11796944 44.45703125 42.5078125 C44.875 44.3125 44.875 44.3125 43.875 47.3125 C27.54 47.8075 27.54 47.8075 10.875 48.3125 C8.125 40.75 8.125 40.75 7.28613281 38.41186523 C5.55790073 33.7355076 3.45451323 29.57991211 0.875 25.3125 C-4.50317519 31.80973649 -9.55773432 38.52578272 -14.5625 45.3125 C-15.50343506 46.58637573 -15.50343506 46.58637573 -16.46337891 47.88598633 C-17.0516748 48.68673584 -17.6399707 49.48748535 -18.24609375 50.3125 C-18.7764624 51.034375 -19.30683105 51.75625 -19.85327148 52.5 C-21.17402031 54.28750836 -21.17402031 54.28750836 -22.125 56.3125 C-22.785 56.3125 -23.445 56.3125 -24.125 56.3125 C-24.41375 57.075625 -24.7025 57.83875 -25 58.625 C-26.125 61.3125 -26.125 61.3125 -28.125 64.3125 C-28.785 64.3125 -29.445 64.3125 -30.125 64.3125 C-30.33125 64.9725 -30.5375 65.6325 -30.75 66.3125 C-32.05011221 69.14910847 -33.40282868 70.935088 -35.375 73.3125 C-37.75478705 76.21798128 -37.75478705 76.21798128 -37.875 79.8125 C-35.78983693 82.79130438 -33.637472 85.70239747 -31.3671875 88.54296875 C-30.125 90.3125 -30.125 90.3125 -30.125 92.3125 C-29.465 92.3125 -28.805 92.3125 -28.125 92.3125 C-24.125 97.72426471 -24.125 97.72426471 -24.125 100.3125 C-23.465 100.3125 -22.805 100.3125 -22.125 100.3125 C-18.125 105.72426471 -18.125 105.72426471 -18.125 108.3125 C-17.465 108.3125 -16.805 108.3125 -16.125 108.3125 C-14.8359375 109.7734375 -14.8359375 109.7734375 -13.5 111.6875 C-13.05398438 112.31398438 -12.60796875 112.94046875 -12.1484375 113.5859375 C-11.125 115.3125 -11.125 115.3125 -11.125 117.3125 C-10.465 117.3125 -9.805 117.3125 -9.125 117.3125 C-7.7523318 119.28571053 -6.42072383 121.28793152 -5.125 123.3125 C-4.465 123.9725 -3.805 124.6325 -3.125 125.3125 C-1.805 124.6525 -0.485 123.9925 0.875 123.3125 C0.875 122.6525 0.875 121.9925 0.875 121.3125 C1.535 121.3125 2.195 121.3125 2.875 121.3125 C2.875 120.6525 2.875 119.9925 2.875 119.3125 C3.9165625 119.51746094 4.958125 119.72242188 6.03125 119.93359375 C15.98986013 121.82751949 25.74840641 122.91724938 35.875 123.3125 C34.81172027 131.9287323 29.51154972 137.36897533 23.03125 142.83984375 C19.56458186 145.2074776 15.90560259 146.27901216 11.875 147.3125 C10.885 147.6425 9.895 147.9725 8.875 148.3125 C-4.54569572 149.27866019 -17.20223173 148.93626015 -29.125 142.3125 C-29.125 141.6525 -29.125 140.9925 -29.125 140.3125 C-30.775 139.6525 -32.425 138.9925 -34.125 138.3125 C-34.125 137.6525 -34.125 136.9925 -34.125 136.3125 C-34.785 136.3125 -35.445 136.3125 -36.125 136.3125 C-37.85746678 134.32948247 -39.46771195 132.34023738 -41.0625 130.25 C-41.54178955 129.62963867 -42.0210791 129.00927734 -42.51489258 128.37011719 C-44.06152118 126.35826713 -45.59519011 124.33716433 -47.125 122.3125 C-47.65029297 121.61850098 -48.17558594 120.92450195 -48.71679688 120.20947266 C-50.2568305 118.1664058 -51.78702689 116.11645582 -53.3125 114.0625 C-53.79388428 113.41917725 -54.27526855 112.77585449 -54.77124023 112.11303711 C-58.125 107.54787354 -58.125 107.54787354 -58.125 105.3125 C-58.785 105.3125 -59.445 105.3125 -60.125 105.3125 C-60.434375 105.93125 -60.74375 106.55 -61.0625 107.1875 C-61.75 108.5625 -62.4375 109.9375 -63.125 111.3125 C-63.785 111.3125 -64.445 111.3125 -65.125 111.3125 C-65.41375 112.075625 -65.7025 112.83875 -66 113.625 C-67.125 116.3125 -67.125 116.3125 -69.125 119.3125 C-69.785 119.3125 -70.445 119.3125 -71.125 119.3125 C-71.351875 119.993125 -71.57875 120.67375 -71.8125 121.375 C-73.43726146 125.0113709 -75.45303257 128.34079263 -78.125 131.3125 C-78.785 131.3125 -79.445 131.3125 -80.125 131.3125 C-80.785 132.9625 -81.445 134.6125 -82.125 136.3125 C-82.785 136.3125 -83.445 136.3125 -84.125 136.3125 C-84.125 136.9725 -84.125 137.6325 -84.125 138.3125 C-84.785 138.3125 -85.445 138.3125 -86.125 138.3125 C-86.125 138.9725 -86.125 139.6325 -86.125 140.3125 C-88.6 141.3025 -88.6 141.3025 -91.125 142.3125 C-91.125 142.9725 -91.125 143.6325 -91.125 144.3125 C-95.75273692 146.65678742 -99.86809031 146.57263564 -104.92578125 146.5078125 C-105.76215622 146.5049826 -106.59853119 146.50215271 -107.46025085 146.49923706 C-110.11948226 146.4880832 -112.77837118 146.46298763 -115.4375 146.4375 C-117.24543783 146.42746399 -119.05338096 146.41833923 -120.86132812 146.41015625 C-125.28268312 146.38815959 -129.70378358 146.35366294 -134.125 146.3125 C-133.465 145.3225 -132.805 144.3325 -132.125 143.3125 C-131.135 143.3125 -130.145 143.3125 -129.125 143.3125 C-129.125 142.6525 -129.125 141.9925 -129.125 141.3125 C-128.34125 141.065 -127.5575 140.8175 -126.75 140.5625 C-123.61483679 139.06956514 -123.5807885 138.33072817 -122.125 135.3125 C-120.92882438 133.74509747 -119.69585444 132.2054364 -118.4375 130.6875 C-114.87993992 126.33289094 -111.67177689 121.83669762 -108.5703125 117.1484375 C-108.09335938 116.54257812 -107.61640625 115.93671875 -107.125 115.3125 C-106.465 115.3125 -105.805 115.3125 -105.125 115.3125 C-104.92648438 114.65894531 -104.72796875 114.00539063 -104.5234375 113.33203125 C-102.54253022 109.05482084 -99.68587494 105.6658297 -96.75 102 C-95.47944237 100.3888297 -94.20993075 98.77683403 -92.94140625 97.1640625 C-91.98258545 95.94831543 -91.98258545 95.94831543 -91.00439453 94.70800781 C-88.19385352 91.12564506 -85.42796438 87.51118208 -82.6875 83.875 C-81.94935059 82.89599731 -81.94935059 82.89599731 -81.19628906 81.8972168 C-77.65122583 77.14130573 -74.44994933 72.26515061 -71.4296875 67.15625 C-70.99914062 66.5478125 -70.56859375 65.939375 -70.125 65.3125 C-69.465 65.3125 -68.805 65.3125 -68.125 65.3125 C-67.83625 64.549375 -67.5475 63.78625 -67.25 63 C-66.125 60.3125 -66.125 60.3125 -64.125 57.3125 C-63.465 57.3125 -62.805 57.3125 -62.125 57.3125 C-61.465 55.6625 -60.805 54.0125 -60.125 52.3125 C-59.465 52.3125 -58.805 52.3125 -58.125 52.3125 C-57.8671875 51.59707031 -57.609375 50.88164062 -57.34375 50.14453125 C-56.05115235 47.14089889 -54.4972291 44.67744628 -52.625 42 C-52.0165625 41.11699219 -51.408125 40.23398438 -50.78125 39.32421875 C-50.2346875 38.66035156 -49.688125 37.99648437 -49.125 37.3125 C-48.465 37.3125 -47.805 37.3125 -47.125 37.3125 C-46.86074219 36.57660645 -46.59648437 35.84071289 -46.32421875 35.08251953 C-45.12805261 32.31955109 -43.80425933 30.34112179 -41.9375 27.9921875 C-41.32132812 27.20972656 -40.70515625 26.42726562 -40.0703125 25.62109375 C-39.42835938 24.81800781 -38.78640625 24.01492187 -38.125 23.1875 C-36.85336741 21.58136164 -35.58250137 19.97461601 -34.3125 18.3671875 C-33.74917969 17.66062012 -33.18585938 16.95405273 -32.60546875 16.22607422 C-31.37728498 14.63858998 -30.23835136 12.98252705 -29.125 11.3125 C-28.465 11.3125 -27.805 11.3125 -27.125 11.3125 C-26.88523437 10.71824219 -26.64546875 10.12398437 -26.3984375 9.51171875 C-24.86363823 6.86112982 -23.31154918 5.78022032 -20.75 4.125 C-19.97914063 3.61582031 -19.20828125 3.10664063 -18.4140625 2.58203125 C-12.71022391 -0.58136046 -6.35114876 0.0551315 0 0 Z " fill="#063D73" transform="translate(336.125,169.6875)"/>
<path d="M0 0 C0.83337891 -0.020625 1.66675781 -0.04125 2.52539062 -0.0625 C8.81069609 -0.10224897 13.01674815 0.87185103 17.7578125 5.30078125 C27.5625 16.79251012 27.5625 16.79251012 27.5625 20.25 C28.2225 20.25 28.8825 20.25 29.5625 20.25 C30.94148043 21.94810754 32.24209478 23.71035459 33.5 25.5 C34.18964844 26.47453125 34.87929688 27.4490625 35.58984375 28.453125 C36.24082031 29.37609375 36.89179688 30.2990625 37.5625 31.25 C38.43068359 32.35601562 38.43068359 32.35601562 39.31640625 33.484375 C40.5625 35.25 40.5625 35.25 40.5625 37.25 C41.2225 37.25 41.8825 37.25 42.5625 37.25 C46.5625 42.66176471 46.5625 42.66176471 46.5625 45.25 C47.2225 45.25 47.8825 45.25 48.5625 45.25 C50.5625 48.25 50.5625 48.25 50.375 50.625 C49.47417666 53.53535231 48.33227938 55.77230886 46.5625 58.25 C45.9025 58.25 45.2425 58.25 44.5625 58.25 C44.32789063 58.94480469 44.09328125 59.63960937 43.8515625 60.35546875 C42.31894702 63.79688715 40.23425588 66.60901548 37.9375 69.5625 C37.51726562 70.11228516 37.09703125 70.66207031 36.6640625 71.22851562 C35.63529961 72.57292168 34.5995991 73.91201413 33.5625 75.25 C30.88793283 74.87207203 29.75638186 74.45233084 27.859375 72.47265625 C27.34890625 71.75980469 26.8384375 71.04695313 26.3125 70.3125 C25.79171875 69.60222656 25.2709375 68.89195312 24.734375 68.16015625 C23.5625 66.25 23.5625 66.25 23.5625 64.25 C22.9025 64.25 22.2425 64.25 21.5625 64.25 C17.5625 58.83823529 17.5625 58.83823529 17.5625 56.25 C16.9025 56.25 16.2425 56.25 15.5625 56.25 C13.92820249 54.1555032 12.42082766 52.07217909 10.9375 49.875 C10.30714844 48.97007812 10.30714844 48.97007812 9.6640625 48.046875 C6.5625 43.51537135 6.5625 43.51537135 6.5625 41.25 C5.9025 41.25 5.2425 41.25 4.5625 41.25 C3.5725 38.775 3.5725 38.775 2.5625 36.25 C1.9025 36.25 1.2425 36.25 0.5625 36.25 C-0.82688077 34.28852126 -2.1635411 32.28833424 -3.4375 30.25 C-7.58566295 34.18465457 -11.00913943 38.43252208 -14.4375 43 C-15.577949 44.50664366 -16.71857969 46.0131498 -17.859375 47.51953125 C-18.73625977 48.680896 -18.73625977 48.680896 -19.63085938 49.86572266 C-21.45747345 52.27635956 -23.29668966 54.67681074 -25.140625 57.07421875 C-25.73488281 57.84733398 -26.32914062 58.62044922 -26.94140625 59.41699219 C-28.08896558 60.9092044 -29.23737787 62.40076112 -30.38671875 63.89160156 C-30.90363281 64.56545898 -31.42054688 65.23931641 -31.953125 65.93359375 C-32.63810059 66.82389282 -32.63810059 66.82389282 -33.33691406 67.73217773 C-34.51652808 69.27222184 -34.51652808 69.27222184 -35.4375 71.25 C-36.0975 71.25 -36.7575 71.25 -37.4375 71.25 C-37.68371094 71.96800781 -37.92992187 72.68601562 -38.18359375 73.42578125 C-39.57866316 76.56794692 -41.30221807 78.80095942 -43.5 81.4375 C-46.24670164 84.66282987 -46.24670164 84.66282987 -48.4375 88.25 C-49.0975 88.25 -49.7575 88.25 -50.4375 88.25 C-50.67855469 88.83523438 -50.91960937 89.42046875 -51.16796875 90.0234375 C-52.68108564 92.67721174 -54.32718729 94.02633282 -56.75 95.875 C-57.50925781 96.46539062 -58.26851563 97.05578125 -59.05078125 97.6640625 C-64.01398616 100.96203499 -68.35529395 101.54079216 -74.22265625 101.55859375 C-75.73763429 101.58373951 -77.25260816 101.60913773 -78.76757812 101.63476562 C-81.13972008 101.66355316 -83.51179003 101.68759297 -85.8840332 101.70629883 C-88.18476954 101.72795674 -90.48469936 101.76737526 -92.78515625 101.80859375 C-93.49253433 101.80870956 -94.19991241 101.80882538 -94.9287262 101.8089447 C-99.11010245 101.89290884 -101.32034347 102.46281379 -104.4375 105.25 C-105.0975 105.25 -105.7575 105.25 -106.4375 105.25 C-106.4375 105.91 -106.4375 106.57 -106.4375 107.25 C-111.89701262 112.15982655 -117.53655495 113.02177332 -124.625 113.3125 C-132.78916643 113.67084432 -132.78916643 113.67084432 -139.4375 118.25 C-142.9375 118.8125 -142.9375 118.8125 -146.4375 118.25 C-149.40065059 115.9954289 -151.01388795 114.22181587 -152.5 110.8125 C-152.40864148 107.06680069 -150.7252144 105.12598382 -148.4375 102.25 C-145.44752175 100.75501087 -142.73707225 101.13422554 -139.4375 101.25 C-138.4475 101.58 -137.4575 101.91 -136.4375 102.25 C-136.4375 102.91 -136.4375 103.57 -136.4375 104.25 C-126.24361947 106.29217194 -126.24361947 106.29217194 -116.37060547 104.23388672 C-113.76885614 102.41606186 -111.40628647 100.39321071 -109.01708984 98.30810547 C-102.36659731 92.76991544 -95.80176015 92.77738083 -87.4375 93.25 C-86.7775 91.6 -86.1175 89.95 -85.4375 88.25 C-86.15929443 88.19465088 -86.88108887 88.13930176 -87.62475586 88.08227539 C-90.87522168 87.8303846 -94.12509621 87.57153699 -97.375 87.3125 C-98.51130859 87.22548828 -99.64761719 87.13847656 -100.81835938 87.04882812 C-101.89794922 86.96181641 -102.97753906 86.87480469 -104.08984375 86.78515625 C-105.09007568 86.706604 -106.09030762 86.62805176 -107.12084961 86.54711914 C-109.4375 86.25 -109.4375 86.25 -110.4375 85.25 C-114.36771825 84.96893552 -118.31093111 85.01816285 -122.25 85 C-123.35666016 84.979375 -124.46332031 84.95875 -125.60351562 84.9375 C-126.66892578 84.93234375 -127.73433594 84.9271875 -128.83203125 84.921875 C-129.81018799 84.9125293 -130.78834473 84.90318359 -131.79614258 84.89355469 C-134.85382854 85.30618261 -136.11291096 86.2916329 -138.4375 88.25 C-142.64671181 89.07257484 -146.27674618 88.97547114 -149.9375 86.6875 C-151.95605692 83.40734501 -152.4375 81.1022557 -152.4375 77.25 C-150.67108828 74.44810554 -149.40700178 72.73475089 -146.4375 71.25 C-142.76420036 71.11642547 -139.93897041 71.0828432 -136.4375 72.25 C-135.7775 73.24 -135.1175 74.23 -134.4375 75.25 C-132.03663533 75.71041261 -132.03663533 75.71041261 -129.23828125 75.65625 C-128.19349609 75.67816406 -127.14871094 75.70007813 -126.07226562 75.72265625 C-124.97591797 75.73167969 -123.87957031 75.74070312 -122.75 75.75 C-111.35983746 75.84542925 -111.35983746 75.84542925 -107 77.7578125 C-101.48181195 80.06915881 -96.04231661 79.68355508 -90.125 79.625 C-88.93326172 79.63660156 -87.74152344 79.64820313 -86.51367188 79.66015625 C-84.81114258 79.65435547 -84.81114258 79.65435547 -83.07421875 79.6484375 C-82.03998779 79.64505371 -81.00575684 79.64166992 -79.94018555 79.63818359 C-78.7013562 79.44603271 -78.7013562 79.44603271 -77.4375 79.25 C-76.4475 77.765 -76.4475 77.765 -75.4375 76.25 C-74.7775 76.25 -74.1175 76.25 -73.4375 76.25 C-73.4375 75.59 -73.4375 74.93 -73.4375 74.25 C-74.6440625 74.20101562 -75.850625 74.15203125 -77.09375 74.1015625 C-78.70835306 74.02646468 -80.32293539 73.95091997 -81.9375 73.875 C-82.72898437 73.8440625 -83.52046875 73.813125 -84.3359375 73.78125 C-89.61878612 73.52143777 -94.34493869 72.68666294 -99.4375 71.25 C-99.4375 70.59 -99.4375 69.93 -99.4375 69.25 C-100.0975 69.25 -100.7575 69.25 -101.4375 69.25 C-101.4375 68.59 -101.4375 67.93 -101.4375 67.25 C-102.02015625 66.9921875 -102.6028125 66.734375 -103.203125 66.46875 C-105.6177903 65.15165983 -107.25490177 63.69911616 -109.1875 61.75 C-110.10789062 60.83734375 -110.10789062 60.83734375 -111.046875 59.90625 C-112.4375 58.25 -112.4375 58.25 -112.4375 56.25 C-116.61337078 54.85804307 -120.56348185 55.02599714 -124.9375 55 C-126.23880859 54.9690625 -126.23880859 54.9690625 -127.56640625 54.9375 C-128.81744141 54.92976563 -128.81744141 54.92976563 -130.09375 54.921875 C-130.85494141 54.9125293 -131.61613281 54.90318359 -132.40039062 54.89355469 C-134.96902485 55.34300411 -135.67948061 56.39087665 -137.4375 58.25 C-141.36597503 59.10712183 -144.60205058 59.63076179 -148.4375 58.25 C-148.4375 57.59 -148.4375 56.93 -148.4375 56.25 C-149.0975 56.25 -149.7575 56.25 -150.4375 56.25 C-152.10809759 53.69496838 -152.4415057 52.3461367 -152.3125 49.25 C-151.28836454 45.73867842 -150.38298102 44.39940507 -147.4375 42.25 C-143.6524143 41.01573292 -142.00747958 41.01060858 -138.3125 42.5625 C-136.79041794 43.45589599 -135.27263685 44.36004024 -133.8046875 45.33984375 C-130.82337447 46.48612417 -128.26212189 46.44470608 -125.09082031 46.4753418 C-112.18574484 46.60774861 -112.18574484 46.60774861 -106.984375 51.55859375 C-106.47390625 52.11675781 -105.9634375 52.67492187 -105.4375 53.25 C-104.84453125 53.79785156 -104.2515625 54.34570312 -103.640625 54.91015625 C-102.16849806 56.28436649 -100.79216539 57.75986807 -99.4375 59.25 C-99.4375 59.91 -99.4375 60.57 -99.4375 61.25 C-98.7775 61.25 -98.1175 61.25 -97.4375 61.25 C-97.4375 61.91 -97.4375 62.57 -97.4375 63.25 C-94.07198877 64.37183708 -91.34689768 64.45800968 -87.80078125 64.56640625 C-86.50205078 64.60830078 -85.20332031 64.65019531 -83.86523438 64.69335938 C-82.49349239 64.73316987 -81.12174756 64.77288216 -79.75 64.8125 C-78.36652355 64.85570835 -76.98305973 64.89932339 -75.59960938 64.94335938 C-72.21234281 65.04958028 -68.82500201 65.15162358 -65.4375 65.25 C-64.23121992 62.91785852 -63.2720262 60.75357861 -62.4375 58.25 C-63.01709473 58.41459717 -63.59668945 58.57919434 -64.19384766 58.7487793 C-67.72532679 59.53769406 -71.22631609 59.24427393 -74.8125 59.0625 C-75.555 59.04380859 -76.2975 59.02511719 -77.0625 59.00585938 C-82.26543021 58.74387437 -85.24756306 57.56110231 -89.4375 54.25 C-90.406875 53.5075 -91.37625 52.765 -92.375 52 C-94.61759843 50.09006323 -96.52980794 48.05487488 -98.4375 45.8125 C-108.35921306 33.03429487 -108.35921306 33.03429487 -121.8125 25.375 C-124.16768625 25.18868506 -124.16768625 25.18868506 -126.4375 25.25 C-127.16839844 25.1778125 -127.89929688 25.105625 -128.65234375 25.03125 C-133.76657127 24.65030195 -135.63233491 26.12781326 -139.4375 29.25 C-142.9375 29.8125 -142.9375 29.8125 -146.4375 29.25 C-149.43270777 26.97103757 -151.0393488 25.245378 -152.4375 21.75 C-152.4375 17.57086957 -150.3001693 15.1126693 -147.4375 12.25 C-145.4140625 11.9140625 -145.4140625 11.9140625 -143.0625 11.875 C-141.90621094 11.83246094 -141.90621094 11.83246094 -140.7265625 11.7890625 C-138.4375 12.25 -138.4375 12.25 -136.703125 14.2109375 C-133.32614924 17.25021568 -129.97240543 17.00777579 -125.5625 17.25 C-110.38120042 18.09202967 -99.20667873 31.38503887 -89.4375 42.25 C-89.4375 42.91 -89.4375 43.57 -89.4375 44.25 C-88.7775 44.25 -88.1175 44.25 -87.4375 44.25 C-85.74987149 45.8954378 -84.0834651 47.56288577 -82.4375 49.25 C-75.2153194 52.8610903 -63.09380531 51.98730463 -55.4375 50.25 C-50.31043995 47.30777956 -47.46461331 42.37482766 -44.62988281 37.33789062 C-43.08142311 34.6265009 -41.32403451 32.09680408 -39.52734375 29.5456543 C-38.37938648 27.90792346 -37.27791849 26.23788968 -36.1796875 24.56640625 C-35.60476562 23.80199219 -35.02984375 23.03757813 -34.4375 22.25 C-33.7775 22.25 -33.1175 22.25 -32.4375 22.25 C-32.10685547 21.21746094 -32.10685547 21.21746094 -31.76953125 20.1640625 C-30.07303023 16.45265558 -27.77051809 13.70265451 -25.125 10.625 C-24.4144043 9.76648438 -24.4144043 9.76648438 -23.68945312 8.890625 C-16.82177441 0.81100298 -10.14323819 0.06246798 0 0 Z " fill="#053C72" transform="translate(224.4375,169.75)"/>
<path d="M0 0 C1.08087891 0.433125 1.08087891 0.433125 2.18359375 0.875 C3.11300781 1.24625 4.04242188 1.6175 5 2 C5.81597656 2.33 6.63195312 2.66 7.47265625 3 C8.32730469 3.33 9.18195313 3.66 10.0625 4 C10.89910156 4.33 11.73570312 4.66 12.59765625 5 C22.26107107 7.84022295 31.90063976 8.32205352 41.91796875 8.26074219 C43.99769222 8.25001191 46.07655234 8.26070865 48.15625 8.2734375 C58.67540225 8.28607265 68.93910212 7.83938959 78.625 3.375 C83.85549133 1 83.85549133 1 86 1 C86.13539281 3.89740622 86.23426829 6.78845621 86.3125 9.6875 C86.35439453 10.50412109 86.39628906 11.32074219 86.43945312 12.16210938 C86.52641447 16.45799975 86.44698048 18.39493127 83.82421875 21.9453125 C68.17088729 33.33349002 40.72772434 31.82232805 22.57397461 29.12597656 C14.52158521 27.70891798 5.04216029 26.00606517 0 19 C-0.48982194 15.7364145 -0.37637127 12.54051345 -0.25 9.25 C-0.23195313 8.36183594 -0.21390625 7.47367187 -0.1953125 6.55859375 C-0.14827374 4.37129152 -0.08257009 2.18620184 0 0 Z " fill="#053B71" transform="translate(328,261)"/>
<path d="M0 0 C3.10329981 0.99580298 5.93083783 1.96311351 8.8125 3.5 C26.23562577 11.69911801 56.82696046 10.33406621 75 5 C77.1737773 4.06520157 79.23876411 3.04744783 81.30859375 1.90234375 C83 1 83 1 86 0 C86.14546783 3.24952748 86.2341168 6.49821713 86.3125 9.75 C86.35439453 10.67039063 86.39628906 11.59078125 86.43945312 12.5390625 C86.56258391 19.33588161 86.56258391 19.33588161 83.87890625 22.50390625 C80.82016589 24.09345517 77.93573883 25.22416151 74.625 26.1875 C73.00464844 26.67283203 73.00464844 26.67283203 71.3515625 27.16796875 C65.31596781 28.66631568 59.38944373 29.16450014 53.1875 29.203125 C52.45611816 29.20882507 51.72473633 29.21452515 50.97119141 29.22039795 C49.42823709 29.2297932 47.88526321 29.23635998 46.34228516 29.24023438 C44.03380151 29.24985907 41.72624115 29.28090012 39.41796875 29.3125 C26.56851336 29.40410226 11.80486379 29.03904268 1.31518555 20.65307617 C-0.39830263 18.49936753 -0.34788454 17.27826541 -0.29296875 14.55078125 C-0.28330078 13.70322266 -0.27363281 12.85566406 -0.26367188 11.98242188 C-0.23853516 11.10134766 -0.21339844 10.22027344 -0.1875 9.3125 C-0.17396484 8.41982422 -0.16042969 7.52714844 -0.14648438 6.60742188 C-0.11114079 4.40433834 -0.06180493 2.20247418 0 0 Z " fill="#0E4175" transform="translate(328,236)"/>
<path d="M0 0 C0.495 0.433125 0.99 0.86625 1.5 1.3125 C1.375 4.625 1.375 4.625 0.5 8.3125 C-13.90639881 19.51747685 -44.72484188 16.80770218 -61.9296875 14.78125 C-69.75420791 13.61541649 -78.70917543 12.10332457 -84.5 6.3125 C-84.625 3.6875 -84.625 3.6875 -84.5 1.3125 C-83.84 1.3125 -83.18 1.3125 -82.5 1.3125 C-82.5 0.6525 -82.5 -0.0075 -82.5 -0.6875 C-60.60350853 -10.38100297 -20.89004102 -14.10077769 0 0 Z " fill="#05396D" transform="translate(412.5,225.6875)"/>
<path d="M0 0 C8.07086151 5.2951684 11.86136088 16.63636666 14.3046875 25.5390625 C15.22139296 28.78358183 16.37666782 31.9291371 17.546875 35.08984375 C18 37 18 37 17 40 C0.665 40.495 0.665 40.495 -16 41 C-25 17.2 -25 17.2 -25 13 C-20.1356828 2.25796619 -11.93550613 -2.74379451 0 0 Z " fill="#083566" transform="translate(363,177)"/>
<path d="M0 0 C1.15628906 -0.04253906 1.15628906 -0.04253906 2.3359375 -0.0859375 C4.625 0.375 4.625 0.375 6.359375 2.3359375 C9.73635076 5.37521568 13.09009457 5.13277579 17.5 5.375 C32.68129958 6.21702967 43.85582127 19.51003887 53.625 30.375 C53.625 31.035 53.625 31.695 53.625 32.375 C54.285 32.375 54.945 32.375 55.625 32.375 C57.31262851 34.0204378 58.9790349 35.68788577 60.625 37.375 C63.25223396 38.68861698 65.35110561 38.58753909 68.2890625 38.69140625 C69.97128906 38.75424805 69.97128906 38.75424805 71.6875 38.81835938 C72.863125 38.85767578 74.03875 38.89699219 75.25 38.9375 C76.43335938 38.98068359 77.61671875 39.02386719 78.8359375 39.06835938 C81.76550328 39.17467426 84.69515588 39.27670642 87.625 39.375 C86.04496314 43.76809313 84.07302976 46.19918312 80.625 49.375 C80.625 48.385 80.625 47.395 80.625 46.375 C80.04540527 46.53959717 79.46581055 46.70419434 78.86865234 46.8737793 C75.33717321 47.66269406 71.83618391 47.36927393 68.25 47.1875 C67.5075 47.16880859 66.765 47.15011719 66 47.13085938 C60.79706979 46.86887437 57.81493694 45.68610231 53.625 42.375 C52.655625 41.6325 51.68625 40.89 50.6875 40.125 C48.44490157 38.21506323 46.53269206 36.17987488 44.625 33.9375 C34.70328694 21.15929487 34.70328694 21.15929487 21.25 13.5 C18.89481375 13.31368506 18.89481375 13.31368506 16.625 13.375 C15.52865234 13.26671875 15.52865234 13.26671875 14.41015625 13.15625 C9.29592873 12.77530195 7.43016509 14.25281326 3.625 17.375 C0.125 17.9375 0.125 17.9375 -3.375 17.375 C-6.37020777 15.09603757 -7.9768488 13.370378 -9.375 9.875 C-9.375 4.05091091 -5.65266573 0.0938981 0 0 Z " fill="#1FDBEB" transform="translate(81.375,181.625)"/>
<path d="M0 0 C1.03769531 0.66902344 2.07539062 1.33804688 3.14453125 2.02734375 C7.38878195 4.51965276 11.1219026 4.42905675 15.9375 4.375 C22.23932252 4.51567705 26.68834968 4.77331449 31.453125 9.30859375 C31.96359375 9.86675781 32.4740625 10.42492187 33 11 C33.59296875 11.54785156 34.1859375 12.09570312 34.796875 12.66015625 C36.26900194 14.03436649 37.64533461 15.50986807 39 17 C39 17.66 39 18.32 39 19 C39.66 19 40.32 19 41 19 C41 19.66 41 20.32 41 21 C44.36551123 22.12183708 47.09060232 22.20800968 50.63671875 22.31640625 C52.58481445 22.37924805 52.58481445 22.37924805 54.57226562 22.44335938 C55.94400761 22.48316987 57.31575244 22.52288216 58.6875 22.5625 C60.07097645 22.60570835 61.45444027 22.64932339 62.83789062 22.69335938 C66.22515719 22.79958028 69.61249799 22.90162358 73 23 C68.49915803 29.98406513 68.49915803 29.98406513 66 32 C64.04223633 32.28051758 64.04223633 32.28051758 61.83203125 32.14453125 C60.61483398 32.07588867 60.61483398 32.07588867 59.37304688 32.00585938 C58.52806641 31.94205078 57.68308594 31.87824219 56.8125 31.8125 C55.98685547 31.76802734 55.16121094 31.72355469 54.31054688 31.67773438 C48.98982433 31.33811379 44.13250679 30.43852266 39 29 C39 28.34 39 27.68 39 27 C38.34 27 37.68 27 37 27 C37 26.34 37 25.68 37 25 C36.41734375 24.7421875 35.8346875 24.484375 35.234375 24.21875 C32.8197097 22.90165983 31.18259823 21.44911616 29.25 19.5 C28.32960938 18.58734375 28.32960938 18.58734375 27.390625 17.65625 C26 16 26 16 26 14 C21.82412922 12.60804307 17.87401815 12.77599714 13.5 12.75 C12.19869141 12.7190625 12.19869141 12.7190625 10.87109375 12.6875 C9.62005859 12.67976562 9.62005859 12.67976562 8.34375 12.671875 C7.58255859 12.6625293 6.82136719 12.65318359 6.03710938 12.64355469 C3.46847515 13.09300411 2.75801939 14.14087665 1 16 C-2.92847503 16.85712183 -6.16455058 17.38076179 -10 16 C-10 15.34 -10 14.68 -10 14 C-10.66 14 -11.32 14 -12 14 C-13.67059759 11.44496838 -14.0040057 10.0961367 -13.875 7 C-12.87252339 3.56293734 -11.77992173 2.2075849 -9 0 C-5.36712974 -1.21095675 -3.70459993 -0.92614998 0 0 Z " fill="#4ADCE8" transform="translate(86,212)"/>
<path d="M0 0 C3 1 3 1 5 4 C7.40086467 4.46041261 7.40086467 4.46041261 10.19921875 4.40625 C11.24400391 4.42816406 12.28878906 4.45007813 13.36523438 4.47265625 C15.00975586 4.48619141 15.00975586 4.48619141 16.6875 4.5 C28.09551039 4.59557878 28.09551039 4.59557878 32.3984375 6.51953125 C38.10695695 8.86609185 43.83614042 8.31227872 49.9375 8.1875 C51.19369141 8.17396484 52.44988281 8.16042969 53.74414062 8.14648438 C56.82987279 8.11128591 59.91471024 8.06204305 63 8 C61.11883258 11.76771101 59.22825319 15.42129033 57 19 C55.515 19.495 55.515 19.495 54 20 C54 19.01 54 18.02 54 17 C53.27820557 16.94465088 52.55641113 16.88930176 51.81274414 16.83227539 C48.56227832 16.5803846 45.31240379 16.32153699 42.0625 16.0625 C40.35803711 15.93198242 40.35803711 15.93198242 38.61914062 15.79882812 C37.53955078 15.71181641 36.45996094 15.62480469 35.34765625 15.53515625 C34.34742432 15.456604 33.34719238 15.37805176 32.31665039 15.29711914 C30 15 30 15 29 14 C25.06978175 13.71893552 21.12656889 13.76816285 17.1875 13.75 C16.08083984 13.729375 14.97417969 13.70875 13.83398438 13.6875 C12.76857422 13.68234375 11.70316406 13.6771875 10.60546875 13.671875 C9.62731201 13.6625293 8.64915527 13.65318359 7.64135742 13.64355469 C4.58367146 14.05618261 3.32458904 15.0416329 1 17 C-3.20921181 17.82257484 -6.83924618 17.72547114 -10.5 15.4375 C-12.51855692 12.15734501 -13 9.8522557 -13 6 C-9.31425695 0.15364896 -6.69860206 -0.23503867 0 0 Z " fill="#07DBED" transform="translate(85,241)"/>
<path d="M0 0 C-0.33 0.99 -0.66 1.98 -1 3 C-1.66 3 -2.32 3 -3 3 C-3 3.66 -3 4.32 -3 5 C4.92 5.33 12.84 5.66 21 6 C21 6.33 21 6.66 21 7 C19.48647949 7.02187378 19.48647949 7.02187378 17.94238281 7.04418945 C14.19235109 7.10224114 10.44291554 7.17947292 6.69335938 7.26245117 C5.07171314 7.29566835 3.44995219 7.32371035 1.828125 7.34643555 C-0.50570477 7.38004155 -2.83848635 7.4323576 -5.171875 7.48828125 C-5.89493835 7.49467117 -6.61800171 7.5010611 -7.36297607 7.50764465 C-11.57479725 7.6301741 -13.86032394 8.18225789 -17 11 C-17.66 11 -18.32 11 -19 11 C-19 11.66 -19 12.32 -19 13 C-24.45951262 17.90982655 -30.09905495 18.77177332 -37.1875 19.0625 C-45.35166643 19.42084432 -45.35166643 19.42084432 -52 24 C-55.5 24.5625 -55.5 24.5625 -59 24 C-61.96315059 21.7454289 -63.57638795 19.97181587 -65.0625 16.5625 C-64.97114148 12.81680069 -63.2877144 10.87598382 -61 8 C-58.01002175 6.50501087 -55.29957225 6.88422554 -52 7 C-51.01 7.33 -50.02 7.66 -49 8 C-49 8.66 -49 9.32 -49 10 C-38.79958443 12.05214358 -38.79958443 12.05214358 -28.93310547 9.96777344 C-26.33563872 8.12698608 -23.97101792 6.08525164 -21.57958984 3.98779297 C-14.8519817 -1.60009629 -8.33798546 -1.08470507 0 0 Z " fill="#56D3DE" transform="translate(137,264)"/>
<path d="M0 0 C1.7073756 0.97465571 3.38379412 2.0031086 5.0546875 3.0390625 C5.0546875 3.6990625 5.0546875 4.3590625 5.0546875 5.0390625 C6.75238281 5.02166016 6.75238281 5.02166016 8.484375 5.00390625 C9.96614419 4.99452796 11.44791515 4.9854278 12.9296875 4.9765625 C13.67605469 4.96818359 14.42242187 4.95980469 15.19140625 4.95117188 C20.828125 4.92578125 20.828125 4.92578125 23.0546875 6.0390625 C23.0546875 6.6990625 23.0546875 7.3590625 23.0546875 8.0390625 C23.7146875 8.3690625 24.3746875 8.6990625 25.0546875 9.0390625 C22.0704405 9.91585539 19.53157605 10.11639297 16.4296875 9.99609375 C15.12257813 9.96418945 15.12257813 9.96418945 13.7890625 9.93164062 C11.96576534 9.87824407 10.14277372 9.81313185 8.3203125 9.73632812 C3.05790648 9.49271006 3.05790648 9.49271006 -1.34765625 12.01953125 C-1.87488281 12.68597656 -2.40210937 13.35242188 -2.9453125 14.0390625 C-6.5078125 14.5390625 -6.5078125 14.5390625 -9.9453125 14.0390625 C-11.8828125 12.5390625 -11.8828125 12.5390625 -12.9453125 10.0390625 C-13.48169654 5.7393388 -13.41892134 2.74947576 -10.9453125 -0.9609375 C-6.8777252 -2.31679993 -3.87050695 -1.91193717 0 0 Z " fill="#03DDEF" transform="translate(87.9453125,212.9609375)"/>
<path d="M0 0 C-0.33 1.32 -0.66 2.64 -1 4 C-5.75 5 -5.75 5 -8 5 C-8 6.32 -8 7.64 -8 9 C-11.06156654 10.77669223 -13.24036215 11.24050818 -16.765625 11.1953125 C-17.65507813 11.18886719 -18.54453125 11.18242187 -19.4609375 11.17578125 C-20.38132812 11.15902344 -21.30171875 11.14226562 -22.25 11.125 C-23.18585938 11.11597656 -24.12171875 11.10695313 -25.0859375 11.09765625 C-27.39088657 11.07413636 -29.6953116 11.04126853 -32 11 C-32 12.32 -32 13.64 -32 15 C-39.42857143 16.28571429 -39.42857143 16.28571429 -43 15 C-44.45882353 7.70588235 -44.45882353 7.70588235 -42.375 4.5 C-39.64536711 2.77602133 -38.16842183 2.64795313 -35 3 C-35 3.66 -35 4.32 -35 5 C-31.97230685 5.86111516 -29.15733363 6.18230893 -26.015625 6.31640625 C-24.61376953 6.37924805 -24.61376953 6.37924805 -23.18359375 6.44335938 C-22.21550781 6.48267578 -21.24742188 6.52199219 -20.25 6.5625 C-19.26644531 6.60568359 -18.28289062 6.64886719 -17.26953125 6.69335938 C-14.84648725 6.79922052 -12.4233446 6.90130171 -10 7 C-9.67 6.01 -9.34 5.02 -9 4 C-3.74285714 0 -3.74285714 0 0 0 Z " fill="#05DBEF" transform="translate(119,270)"/>
<path d="M0 0 C0.33 0 0.66 0 1 0 C1.1546875 1.423125 1.1546875 1.423125 1.3125 2.875 C1.68539295 6.29107501 1.68539295 6.29107501 5 8 C7.27912938 8.45394552 7.27912938 8.45394552 9.6875 8.625 C10.49574219 8.69976562 11.30398437 8.77453125 12.13671875 8.8515625 C12.75160156 8.90054688 13.36648437 8.94953125 14 9 C13.67 7.68 13.34 6.36 13 5 C15.74731243 3.62634379 17.81667064 3.9871361 20.8828125 4.12109375 C22.04941406 4.16943359 23.21601562 4.21777344 24.41796875 4.26757812 C26.25294922 4.35168945 26.25294922 4.35168945 28.125 4.4375 C29.35605469 4.48970703 30.58710937 4.54191406 31.85546875 4.59570312 C34.90388588 4.7256744 37.9519995 4.86065019 41 5 C41 5.66 41 6.32 41 7 C42.7015625 6.9690625 42.7015625 6.9690625 44.4375 6.9375 C48 7 48 7 49 8 C50.39067183 8.13220587 51.78731209 8.20315126 53.18359375 8.24609375 C54.02857422 8.27896484 54.87355469 8.31183594 55.74414062 8.34570312 C57.53568281 8.40676366 59.3273569 8.46407257 61.11914062 8.51757812 C61.96541016 8.55173828 62.81167969 8.58589844 63.68359375 8.62109375 C64.46275146 8.6461499 65.24190918 8.67120605 66.04467773 8.69702148 C68 9 68 9 70 11 C69.67 11.99 69.34 12.98 69 14 C68.01 14.33 67.02 14.66 66 15 C66 14.01 66 13.02 66 12 C65.27820557 11.94465088 64.55641113 11.88930176 63.81274414 11.83227539 C60.56227832 11.5803846 57.31240379 11.32153699 54.0625 11.0625 C52.35803711 10.93198242 52.35803711 10.93198242 50.61914062 10.79882812 C49.53955078 10.71181641 48.45996094 10.62480469 47.34765625 10.53515625 C46.34742432 10.456604 45.34719238 10.37805176 44.31665039 10.29711914 C42 10 42 10 41 9 C37.06978175 8.71893552 33.12656889 8.76816285 29.1875 8.75 C28.08083984 8.729375 26.97417969 8.70875 25.83398438 8.6875 C24.76857422 8.68234375 23.70316406 8.6771875 22.60546875 8.671875 C21.62731201 8.6625293 20.64915527 8.65318359 19.64135742 8.64355469 C16.58367146 9.05618261 15.32458904 10.0416329 13 12 C8.79078819 12.82257484 5.16075382 12.72547114 1.5 10.4375 C-0.4374597 7.28912799 -0.79258701 4.66429621 -1 1 C-0.67 0.67 -0.34 0.34 0 0 Z " fill="#4EE0EC" transform="translate(73,246)"/>
<path d="M0 0 C0.66 0.33 1.32 0.66 2 1 C1.93489583 2.98567708 1.86979167 4.97135417 1.8046875 6.95703125 C1.86745538 9.31359719 1.86745538 9.31359719 4 12 C7.41538144 12.58369443 7.41538144 12.58369443 11 12 C11.62293945 11.3390332 12.24587891 10.67806641 12.88769531 9.99707031 C15.56208484 7.46857906 16.79975796 7.52888351 20.421875 7.609375 C21.95908203 7.62871094 21.95908203 7.62871094 23.52734375 7.6484375 C25.12255859 7.69871094 25.12255859 7.69871094 26.75 7.75 C28.36841797 7.77707031 28.36841797 7.77707031 30.01953125 7.8046875 C32.68058788 7.85178585 35.33984254 7.917544 38 8 C37.505 6.515 37.505 6.515 37 5 C31.06 4.67 25.12 4.34 19 4 C19 3.67 19 3.34 19 3 C21.87602455 2.89147077 24.74790832 2.8124485 27.625 2.75 C28.43324219 2.71648437 29.24148437 2.68296875 30.07421875 2.6484375 C35.51757951 2.55992757 38.76593032 3.21982259 43 7 C43.45067148 10.21908202 43.455276 12.08944799 42 15 C40.68 14.67 39.36 14.34 38 14 C38 13.34 38 12.68 38 12 C33.82412922 10.60804307 29.87401815 10.77599714 25.5 10.75 C24.19869141 10.7190625 24.19869141 10.7190625 22.87109375 10.6875 C21.62005859 10.67976562 21.62005859 10.67976562 20.34375 10.671875 C19.58255859 10.6625293 18.82136719 10.65318359 18.03710938 10.64355469 C15.46847515 11.09300411 14.75801939 12.14087665 13 14 C9.07152497 14.85712183 5.83544942 15.38076179 2 14 C2 13.34 2 12.68 2 12 C1.34 12 0.68 12 0 12 C-1.75282525 9.31920844 -2.01311136 8.13111361 -1.6875 4.875 C-1 2 -1 2 0 0 Z " fill="#38D7E5" transform="translate(74,214)"/>
<path d="M0 0 C-0.33 0.99 -0.66 1.98 -1 3 C-1.66 3 -2.32 3 -3 3 C-3 3.66 -3 4.32 -3 5 C-3.75925781 5.06058594 -4.51851562 5.12117188 -5.30078125 5.18359375 C-6.29464844 5.26738281 -7.28851563 5.35117187 -8.3125 5.4375 C-9.29863281 5.51871094 -10.28476563 5.59992188 -11.30078125 5.68359375 C-14.09375599 5.91812559 -14.09375599 5.91812559 -17 7 C-17.33 7.66 -17.66 8.32 -18 9 C-18 8.01 -18 7.02 -18 6 C-19.48280196 6.78483659 -20.9611498 7.57809334 -22.4375 8.375 C-23.26121094 8.81585938 -24.08492187 9.25671875 -24.93359375 9.7109375 C-27.13466578 10.83418559 -27.13466578 10.83418559 -28 13 C-31.41659491 13.05816623 -34.83306205 13.09365195 -38.25 13.125 C-39.70212891 13.15013672 -39.70212891 13.15013672 -41.18359375 13.17578125 C-42.58544922 13.18544922 -42.58544922 13.18544922 -44.015625 13.1953125 C-44.87446289 13.20578613 -45.73330078 13.21625977 -46.61816406 13.22705078 C-49.17903596 12.98293323 -50.79511029 12.28990512 -53 11 C-52.67 10.34 -52.34 9.68 -52 9 C-51.25169922 9.46986328 -51.25169922 9.46986328 -50.48828125 9.94921875 C-44.6568181 12.41179895 -37.12882992 12.51087126 -31 11 C-27.50813114 9.10161568 -24.62437861 6.525658 -21.62939453 3.9375 C-14.86816996 -1.57714075 -8.32360665 -1.0828345 0 0 Z " fill="#20D5E3" transform="translate(137,264)"/>
<path d="M0 0 C3.5 0.25 3.5 0.25 6.5 1.25 C7.16 2.24 7.82 3.23 8.5 4.25 C10.90086467 4.71041261 10.90086467 4.71041261 13.69921875 4.65625 C14.74400391 4.67816406 15.78878906 4.70007813 16.86523438 4.72265625 C18.50975586 4.73619141 18.50975586 4.73619141 20.1875 4.75 C31.59551039 4.84557878 31.59551039 4.84557878 35.8984375 6.76953125 C41.60695695 9.11609185 47.33614042 8.56227872 53.4375 8.4375 C54.69369141 8.42396484 55.94988281 8.41042969 57.24414062 8.39648438 C60.32987279 8.36128591 63.41471024 8.31204305 66.5 8.25 C65.84 9.57 65.18 10.89 64.5 12.25 C60.40620455 11.98896069 56.3128171 11.72231416 52.21972656 11.45043945 C50.82692398 11.35872227 49.43401914 11.26854468 48.04101562 11.17993164 C46.0401029 11.05238058 44.03957392 10.9188538 42.0390625 10.78515625 C40.83459473 10.706604 39.63012695 10.62805176 38.38916016 10.54711914 C35.5 10.25 35.5 10.25 33.5 9.25 C31.47152934 8.95841421 29.43602372 8.71508666 27.3984375 8.49609375 C26.18671875 8.36396484 24.975 8.23183594 23.7265625 8.09570312 C22.45554687 7.96099609 21.18453125 7.82628906 19.875 7.6875 C18.59625 7.54892578 17.3175 7.41035156 16 7.26757812 C12.83368685 6.92495469 9.66703058 6.58591633 6.5 6.25 C6.17 5.26 5.84 4.27 5.5 3.25 C1.54 3.25 -2.42 3.25 -6.5 3.25 C-3.5 0.25 -3.5 0.25 0 0 Z " fill="#27CEDB" transform="translate(81.5,240.75)"/>
<path d="M0 0 C0.71542969 0.28746094 1.43085938 0.57492187 2.16796875 0.87109375 C9.44178812 3.77058865 16.139679 6.40676823 24 7 C24 7.33 24 7.66 24 8 C19.545 8.495 19.545 8.495 15 9 C15 8.34 15 7.68 15 7 C14.01 7.33 13.02 7.66 12 8 C9.9375 8.6875 9.9375 8.6875 8 9 C7.34 8.34 6.68 7.68 6 7 C6.66 7 7.32 7 8 7 C7.67 6.34 7.34 5.68 7 5 C5.35 4.67 3.7 4.34 2 4 C2 8.95 2 13.9 2 19 C3.65 19.33 5.3 19.66 7 20 C7.33 21.32 7.66 22.64 8 24 C9.12148438 24.09087891 9.12148438 24.09087891 10.265625 24.18359375 C11.25046875 24.26738281 12.2353125 24.35117187 13.25 24.4375 C14.71179688 24.55931641 14.71179688 24.55931641 16.203125 24.68359375 C18.56461753 24.95074584 20.71901065 25.35371968 23 26 C23 26.66 23 27.32 23 28 C25.31 28 27.62 28 30 28 C30 28.33 30 28.66 30 29 C24.57240863 29.44306868 19.70798736 28.67423339 14.4375 27.375 C13.19871094 27.07335937 11.95992188 26.77171875 10.68359375 26.4609375 C6.25725117 24.70542093 2.79652879 22.9436249 0 19 C-0.80988687 15.65304428 -0.67170745 12.54288459 -0.4375 9.125 C-0.40591797 8.24585938 -0.37433594 7.36671875 -0.34179688 6.4609375 C-0.25980944 4.30583913 -0.13426323 2.152474 0 0 Z " fill="#627B9B" transform="translate(328,261)"/>
<path d="M0 0 C1.7073756 0.97465571 3.38379412 2.0031086 5.0546875 3.0390625 C5.0546875 3.6990625 5.0546875 4.3590625 5.0546875 5.0390625 C6.75238281 5.02166016 6.75238281 5.02166016 8.484375 5.00390625 C9.96614419 4.99452796 11.44791515 4.9854278 12.9296875 4.9765625 C13.67605469 4.96818359 14.42242187 4.95980469 15.19140625 4.95117188 C20.828125 4.92578125 20.828125 4.92578125 23.0546875 6.0390625 C23.0546875 6.6990625 23.0546875 7.3590625 23.0546875 8.0390625 C23.7146875 8.3690625 24.3746875 8.6990625 25.0546875 9.0390625 C22.00625885 9.94808189 19.45807114 10.10079617 16.2890625 9.91796875 C15.39960937 9.86962891 14.51015625 9.82128906 13.59375 9.77148438 C12.67335938 9.71541016 11.75296875 9.65933594 10.8046875 9.6015625 C9.86882812 9.54935547 8.93296875 9.49714844 7.96875 9.44335938 C5.66369863 9.31399425 3.35911461 9.17904216 1.0546875 9.0390625 C0.7246875 8.3790625 0.3946875 7.7190625 0.0546875 7.0390625 C0.3846875 6.3790625 0.7146875 5.7190625 1.0546875 5.0390625 C0.3946875 5.0390625 -0.2653125 5.0390625 -0.9453125 5.0390625 C-1.2753125 4.0490625 -1.6053125 3.0590625 -1.9453125 2.0390625 C-4.23237081 0.89553334 -5.53796012 0.93571811 -8.0703125 0.9765625 C-9.9884375 1.0075 -9.9884375 1.0075 -11.9453125 1.0390625 C-9.58237155 -3.68681941 -3.92992782 -1.94128964 0 0 Z " fill="#0BD9E9" transform="translate(87.9453125,212.9609375)"/>
<path d="M0 0 C8.91 0 17.82 0 27 0 C24 5 24 5 21.95043945 5.58349609 C21.17917725 5.56367676 20.40791504 5.54385742 19.61328125 5.5234375 C18.75669922 5.51183594 17.90011719 5.50023437 17.01757812 5.48828125 C15.67856445 5.43220703 15.67856445 5.43220703 14.3125 5.375 C13.43916016 5.36082031 12.56582031 5.34664062 11.66601562 5.33203125 C6.38322808 5.21367156 1.22985585 4.74277347 -4 4 C-2.68 3.34 -1.36 2.68 0 2 C0 1.34 0 0.68 0 0 Z " fill="#07DAEC" transform="translate(131,236)"/>
<path d="M0 0 C0.33 0 0.66 0 1 0 C1.3125 2.6875 1.3125 2.6875 1 6 C-1.375 8.875 -1.375 8.875 -4 11 C-4.66 11 -5.32 11 -6 11 C-5.5875 11.680625 -5.175 12.36125 -4.75 13.0625 C-3.88302906 16.45813617 -4.19052932 16.91473925 -5.875 19.8125 C-6.57625 20.864375 -7.2775 21.91625 -8 23 C-8.33 22.34 -8.66 21.68 -9 21 C-9.99 21 -10.98 21 -12 21 C-12.33 21.99 -12.66 22.98 -13 24 C-13.66 24 -14.32 24 -15 24 C-15.33 24.99 -15.66 25.98 -16 27 C-16.66 26.67 -17.32 26.34 -18 26 C-16.38343185 22.60520688 -14.49068911 19.43847663 -12.5 16.25 C-11.8915625 15.26515625 -11.283125 14.2803125 -10.65625 13.265625 C-10.1096875 12.51796875 -9.563125 11.7703125 -9 11 C-8.34 11 -7.68 11 -7 11 C-6.71125 10.236875 -6.4225 9.47375 -6.125 8.6875 C-5 6 -5 6 -3 3 C-2.34 3 -1.68 3 -1 3 C-0.67 2.01 -0.34 1.02 0 0 Z " fill="#194573" transform="translate(275,224)"/>
<path d="M0 0 C6.04433574 1.35997554 9.63494136 4.85651794 14 9 C11.50907189 10.24546405 10.58919267 9.7767578 8 9 C8.66 10.98 9.32 12.96 10 15 C10.66 15 11.32 15 12 15 C12 15.66 12 16.32 12 17 C12.99 17.33 13.98 17.66 15 18 C14.67 18.99 14.34 19.98 14 21 C13.24976562 20.15695313 12.49953125 19.31390625 11.7265625 18.4453125 C4.22964735 10.16776531 4.22964735 10.16776531 -6.234375 7.015625 C-6.81703125 7.01046875 -7.3996875 7.0053125 -8 7 C-4.66688525 5.2175082 -1.75519057 4.51207144 2 4 C2 3.34 2 2.68 2 2 C1.34 2 0.68 2 0 2 C0 1.34 0 0.68 0 0 Z " fill="#35DCEA" transform="translate(106,188)"/>
<path d="M0 0 C4.50426128 0.0785212 5.473945 1.223945 8.625 4.375 C11.9449678 5.03477102 15.24636747 5.24604456 18.625 5.375 C18.625 5.705 18.625 6.035 18.625 6.375 C16.66810341 6.59642255 14.70938048 6.8017568 12.75 7 C11.11417969 7.17402344 11.11417969 7.17402344 9.4453125 7.3515625 C8.04925781 7.36316406 8.04925781 7.36316406 6.625 7.375 C5.965 6.715 5.305 6.055 4.625 5.375 C4.625 4.385 4.625 3.395 4.625 2.375 C0.3072542 2.88297009 -3.40802114 3.57182779 -7.375 5.375 C-7.045 8.015 -6.715 10.655 -6.375 13.375 C-2.85440432 14.54853189 -0.068507 14.57646402 3.625 14.375 C4.285 13.715 4.945 13.055 5.625 12.375 C6.615 12.705 7.605 13.035 8.625 13.375 C5.77479467 16.13883547 4.09155624 17.30001775 0.125 17.9375 C-4.31166918 17.22446388 -5.69242089 15.92547235 -8.375 12.375 C-9.375 9.875 -9.375 9.875 -9.375 7.375 C-7.08242241 2.68067447 -5.3590357 0.08902053 0 0 Z " fill="#52D8DE" transform="translate(81.375,181.625)"/>
<path d="M0 0 C-5.56804464 6.55833446 -17.49883635 8.1175118 -25.68603516 8.86816406 C-35.10000186 9.40451583 -44.57637607 9.13717065 -54 9 C-54 8.67 -54 8.34 -54 8 C-46.74 7.67 -39.48 7.34 -32 7 C-32 6.67 -32 6.34 -32 6 C-23.585 5.505 -23.585 5.505 -15 5 C-15 4.34 -15 3.68 -15 3 C-13.7625 2.71125 -12.525 2.4225 -11.25 2.125 C-8.82991284 1.53171585 -6.91478895 0.95624297 -4.6875 -0.1875 C-3 -1 -3 -1 0 0 Z " fill="#6E85A4" transform="translate(412,282)"/>
<path d="M0 0 C2.64 0 5.28 0 8 0 C8.495 0.99 8.495 0.99 9 2 C-6.53856033 5.82768055 -22.11698405 5.30439195 -38 5 C-38 4.34 -38 3.68 -38 3 C-25.46 2.67 -12.92 2.34 0 2 C0 1.34 0 0.68 0 0 Z " fill="#37577A" transform="translate(394,236)"/>
<path d="M0 0 C0.72469482 0.15847412 1.44938965 0.31694824 2.19604492 0.48022461 C4.78951662 0.96098223 7.2319784 1.19757322 9.86328125 1.31640625 C11.19262695 1.37924805 11.19262695 1.37924805 12.54882812 1.44335938 C13.9168457 1.50233398 13.9168457 1.50233398 15.3125 1.5625 C16.70952148 1.62727539 16.70952148 1.62727539 18.13476562 1.69335938 C20.42304454 1.79897225 22.71142372 1.90107752 25 2 C25 3.32 25 4.64 25 6 C21.77100574 6.0875127 18.54231884 6.14056146 15.3125 6.1875 C13.94448242 6.22520508 13.94448242 6.22520508 12.54882812 6.26367188 C3.72026146 6.35998351 3.72026146 6.35998351 0 3 C0 2.01 0 1.02 0 0 Z " fill="#06DAEE" transform="translate(138,221)"/>
<path d="M0 0 C1.66289062 0.00966797 1.66289062 0.00966797 3.359375 0.01953125 C4.50148438 0.03628906 5.64359375 0.05304688 6.8203125 0.0703125 C8.56828125 0.08384766 8.56828125 0.08384766 10.3515625 0.09765625 C13.21635827 0.12113818 16.08072785 0.15398109 18.9453125 0.1953125 C18.9453125 0.8553125 18.9453125 1.5153125 18.9453125 2.1953125 C17.9394812 2.21718628 17.9394812 2.21718628 16.91333008 2.23950195 C13.86092428 2.3141955 10.80958665 2.41078549 7.7578125 2.5078125 C6.70271484 2.53037109 5.64761719 2.55292969 4.56054688 2.57617188 C3.53896484 2.61162109 2.51738281 2.64707031 1.46484375 2.68359375 C0.52745361 2.70977783 -0.40993652 2.73596191 -1.37573242 2.76293945 C-4.50857673 3.26856848 -6.39905134 4.50251285 -9.0546875 6.1953125 C-11.05257188 6.54110018 -13.05228201 6.87674799 -15.0546875 7.1953125 C-15.3846875 7.8553125 -15.7146875 8.5153125 -16.0546875 9.1953125 C-17.3746875 8.8653125 -18.6946875 8.5353125 -20.0546875 8.1953125 C-18.85458005 7.22669786 -17.64410506 6.270924 -16.4296875 5.3203125 C-15.75679688 4.78664062 -15.08390625 4.25296875 -14.390625 3.703125 C-9.79948969 0.73961626 -5.39949586 -0.05566491 0 0 Z " fill="#48698A" transform="translate(330.0546875,169.8046875)"/>
<path d="M0 0 C5 2 5 2 7.25 3 C11.08355184 4.39401885 15.0093044 5.18273336 19 6 C19 6.33 19 6.66 19 7 C17.7625 6.938125 16.525 6.87625 15.25 6.8125 C11.45193026 6.79915002 9.90583458 7.49497019 7 10 C4.25 10.6875 4.25 10.6875 2 11 C1.67 12.98 1.34 14.96 1 17 C0.67 17 0.34 17 0 17 C0 11.39 0 5.78 0 0 Z " fill="#06386C" transform="translate(330,237)"/>
<path d="M0 0 C8.91 0 17.82 0 27 0 C25.22157001 4.44607497 24.35585467 5.9797308 21 9 C21 6.69 21 4.38 21 2 C14.4 2 7.8 2 1 2 C0.67 1.34 0.34 0.68 0 0 Z " fill="#38CCDC" transform="translate(142,221)"/>
<path d="M0 0 C0.84175781 -0.01224609 1.68351562 -0.02449219 2.55078125 -0.03710938 C6.98467541 -0.04758314 10.46928554 0.09780582 14.5 2.1875 C13.84 2.8475 13.18 3.5075 12.5 4.1875 C10.8242865 3.90311796 9.15903882 3.55693077 7.5 3.1875 C4.90315591 3.0687082 2.3460871 2.99786355 -0.25 3 C-1.31081787 2.99794556 -1.31081787 2.99794556 -2.39306641 2.99584961 C-7.72371838 3.04533194 -12.3668007 3.85994846 -17.5 5.1875 C-18.16 4.8575 -18.82 4.5275 -19.5 4.1875 C-13.13565272 0.00521464 -7.39803093 0.00566465 0 0 Z " fill="#577195" transform="translate(224.5,169.8125)"/>
<path d="M0 0 C1.65 0 3.3 0 5 0 C3.02243194 4.19659671 0.36775694 7.56760526 -2.5 11.1875 C-2.99886719 11.82880859 -3.49773437 12.47011719 -4.01171875 13.13085938 C-7.74821701 17.8741085 -7.74821701 17.8741085 -10 19 C-9.67 17.68 -9.34 16.36 -9 15 C-8.34 15 -7.68 15 -7 15 C-7.04125 13.906875 -7.0825 12.81375 -7.125 11.6875 C-7 8 -7 8 -5 5 C-4.01 5.33 -3.02 5.66 -2 6 C-1.34 4.02 -0.68 2.04 0 0 Z " fill="#315786" transform="translate(210,205)"/>
<path d="M0 0 C0 5.94 0 11.88 0 18 C-0.33 18 -0.66 18 -1 18 C-1 14.04 -1 10.08 -1 6 C-5.60742865 7.21044132 -5.60742865 7.21044132 -10 9 C-10.66 8.67 -11.32 8.34 -12 8 C-12 7.34 -12 6.68 -12 6 C-12.66 5.67 -13.32 5.34 -14 5 C-12.04350603 4.16235732 -10.08474444 3.33000941 -8.125 2.5 C-6.48917969 1.80390625 -6.48917969 1.80390625 -4.8203125 1.09375 C-2 0 -2 0 0 0 Z " fill="#496890" transform="translate(414,262)"/>
<path d="M0 0 C4.95 0 9.9 0 15 0 C15 0.66 15 1.32 15 2 C15.66 2 16.32 2 17 2 C17 2.66 17 3.32 17 4 C12.12929813 5.88989379 7.77608662 6.4014447 2.625 6.625 C1.52091797 6.68300781 1.52091797 6.68300781 0.39453125 6.7421875 C-1.40327406 6.83557998 -3.20160108 6.9188371 -5 7 C-5.33 6.34 -5.66 5.68 -6 5 C-2.43928688 3.95117609 1.05527897 3.69613047 4.75 3.4375 C6.50570312 3.31181641 6.50570312 3.31181641 8.296875 3.18359375 C9.18890625 3.12300781 10.0809375 3.06242188 11 3 C8.70370006 1.85185003 6.92301914 1.69230191 4.375 1.4375 C3.55773437 1.35371094 2.74046875 1.26992187 1.8984375 1.18359375 C1.27195312 1.12300781 0.64546875 1.06242188 0 1 C0 0.67 0 0.34 0 0 Z " fill="#17CEE1" transform="translate(91,188)"/>
<path d="M0 0 C0.66 0.33 1.32 0.66 2 1 C1.67 1.66 1.34 2.32 1 3 C11.23 3.33 21.46 3.66 32 4 C32 3.34 32 2.68 32 2 C34.35438733 0.57055055 35.48032433 -0.08661261 38.25 0.375 C38.8275 0.58125 39.405 0.7875 40 1 C39.34 1 38.68 1 38 1 C38 1.66 38 2.32 38 3 C33.37226308 5.34428742 29.25690969 5.26013564 24.19921875 5.1953125 C22.9446563 5.19106766 22.9446563 5.19106766 21.66474915 5.18673706 C19.00551774 5.1755832 16.34662882 5.15048763 13.6875 5.125 C11.87956217 5.11496399 10.07161904 5.10583923 8.26367188 5.09765625 C3.84231688 5.07565959 -0.57878358 5.04116294 -5 5 C-4.34 4.01 -3.68 3.02 -3 2 C-2.01 2 -1.02 2 0 2 C0 1.34 0 0.68 0 0 Z " fill="#5C7096" transform="translate(207,311)"/>
<path d="M0 0 C14.35184461 -0.37752728 27.8992256 0.23578752 42 3 C41.67 3.66 41.34 4.32 41 5 C40.071875 4.835 39.14375 4.67 38.1875 4.5 C33.96172073 3.87044513 29.81116597 4.00950615 25.55078125 4.16015625 C23 4 23 4 21.12475586 3.01586914 C18.75195088 1.88140499 17.06916846 1.69199332 14.453125 1.5859375 C13.18662109 1.52792969 13.18662109 1.52792969 11.89453125 1.46875 C10.58548828 1.42234375 10.58548828 1.42234375 9.25 1.375 C8.36183594 1.33632812 7.47367187 1.29765625 6.55859375 1.2578125 C4.3726002 1.16379127 2.18660938 1.07813857 0 1 C0 0.67 0 0.34 0 0 Z " fill="#627999" transform="translate(360,218)"/>
<path d="M0 0 C2.25245881 2.68841859 3.88213958 4.64641875 5 8 C5.66 8 6.32 8 7 8 C8.2890625 9.6796875 8.2890625 9.6796875 9.625 11.875 C10.29402344 12.95394531 10.29402344 12.95394531 10.9765625 14.0546875 C12 16 12 16 12 18 C10.1875 17.875 10.1875 17.875 8 17 C6.26918256 14.05119992 5.08011848 11.24035543 4 8 C2.67532254 7.3162955 1.34136367 6.65035814 0 6 C-0.66 5.01 -1.32 4.02 -2 3 C-1.34 3 -0.68 3 0 3 C0 2.01 0 1.02 0 0 Z " fill="#304C71" transform="translate(307,262)"/>
<path d="M0 0 C0.99 0.33 1.98 0.66 3 1 C2.67 1.66 2.34 2.32 2 3 C2.99 3.33 3.98 3.66 5 4 C7.37350376 7.56025563 7.3470011 9.78463459 7.55859375 13.94140625 C7.83402303 16.39292685 7.83402303 16.39292685 11 18 C11 18.66 11 19.32 11 20 C9.68 20 8.36 20 7 20 C6.01811439 17.41767086 5.03940411 14.83421317 4.0625 12.25 C3.78470703 11.52039063 3.50691406 10.79078125 3.22070312 10.0390625 C2.95322266 9.33007812 2.68574219 8.62109375 2.41015625 7.890625 C2.16402588 7.24125977 1.91789551 6.59189453 1.66430664 5.92285156 C0.98874565 3.967424 0.47199954 2.01334243 0 0 Z " fill="#3B5274" transform="translate(340,198)"/>
<path d="M0 0 C3.5 0.25 3.5 0.25 6.5 1.25 C7.16 2.24 7.82 3.23 8.5 4.25 C11.01385259 4.75960691 11.01385259 4.75960691 13.9453125 4.76171875 C15.55986328 4.81489258 15.55986328 4.81489258 17.20703125 4.86914062 C18.33496094 4.89169922 19.46289062 4.91425781 20.625 4.9375 C22.32849609 4.98874023 22.32849609 4.98874023 24.06640625 5.04101562 C26.87750579 5.12369502 29.68828553 5.19277937 32.5 5.25 C32.5 5.58 32.5 5.91 32.5 6.25 C23.92 6.25 15.34 6.25 6.5 6.25 C6.17 5.26 5.84 4.27 5.5 3.25 C1.54 3.25 -2.42 3.25 -6.5 3.25 C-3.5 0.25 -3.5 0.25 0 0 Z " fill="#60DBE3" transform="translate(81.5,240.75)"/>
<path d="M0 0 C0.66 0.33 1.32 0.66 2 1 C1.93489583 2.98567708 1.86979167 4.97135417 1.8046875 6.95703125 C1.86745538 9.31359719 1.86745538 9.31359719 4 12 C7.5 12.41666667 7.5 12.41666667 11 12 C11.66 11.34 12.32 10.68 13 10 C13.99 10.33 14.98 10.66 16 11 C14.02741645 13.66878951 12.89126876 14.02372318 9.5625 14.75 C6.60048953 14.95786038 4.74202541 14.98712915 2 14 C2 13.34 2 12.68 2 12 C1.34 12 0.68 12 0 12 C-1.75282525 9.31920844 -2.01311136 8.13111361 -1.6875 4.875 C-1 2 -1 2 0 0 Z " fill="#61D8E0" transform="translate(74,214)"/>
<path d="M0 0 C2.875 0.25 2.875 0.25 6 1 C8.16898181 3.85911239 8 5.28443578 8 9 C8.99 9 9.98 9 11 9 C11 9.99 11 10.98 11 12 C9.68 12 8.36 12 7 12 C6.67 11.01 6.34 10.02 6 9 C5.34 8.67 4.68 8.34 4 8 C4 7.34 4 6.68 4 6 C3.34 6 2.68 6 2 6 C0 3 0 3 0 0 Z " fill="#0BD9EB" transform="translate(114,197)"/>
<path d="M0 0 C1.98 0.495 1.98 0.495 4 1 C4 1.66 4 2.32 4 3 C4.66 3 5.32 3 6 3 C8.17204 5.96187272 9.83561997 8.50685991 11 12 C10.01 12.33 9.02 12.66 8 13 C7.67 11.68 7.34 10.36 7 9 C6.34 9 5.68 9 5 9 C5 8.34 5 7.68 5 7 C3.35 6.67 1.7 6.34 0 6 C-1.125 2.25 -1.125 2.25 0 0 Z " fill="#31537E" transform="translate(321,284)"/>
<path d="M0 0 C3.79160297 -0.05786668 7.58309311 -0.09355054 11.375 -0.125 C12.45523438 -0.14175781 13.53546875 -0.15851563 14.6484375 -0.17578125 C15.6796875 -0.18222656 16.7109375 -0.18867188 17.7734375 -0.1953125 C19.20308838 -0.21102295 19.20308838 -0.21102295 20.66162109 -0.22705078 C23 0 23 0 25 2 C24.67 2.99 24.34 3.98 24 5 C23.01 5.33 22.02 5.66 21 6 C21 5.01 21 4.02 21 3 C14.07 2.34 7.14 1.68 0 1 C0 0.67 0 0.34 0 0 Z " fill="#53C8D8" transform="translate(118,255)"/>
<path d="M0 0 C9.57 0 19.14 0 29 0 C29 0.33 29 0.66 29 1 C18.86280868 2.69170073 10.18201482 3.2665444 0 1 C0 0.67 0 0.34 0 0 Z " fill="#294569" transform="translate(351,245)"/>
<path d="M0 0 C1.5 1.375 1.5 1.375 3 3 C3 3.66 3 4.32 3 5 C3.66 5 4.32 5 5 5 C6.7265625 6.96875 6.7265625 6.96875 8.625 9.5 C9.25664062 10.3353125 9.88828125 11.170625 10.5390625 12.03125 C11.26222656 13.00578125 11.26222656 13.00578125 12 14 C11.67 14.66 11.34 15.32 11 16 C7.11451224 14.41702351 4.63329716 12.25697281 2 9 C1.03059069 6.03708743 0.44981663 3.08157957 0 0 Z " fill="#3A5A7E" transform="translate(249,185)"/>
<path d="M0 0 C8.415 1.485 8.415 1.485 17 3 C17 3.33 17 3.66 17 4 C8.97028543 6.2742111 8.97028543 6.2742111 5.125 5.1875 C4.42375 4.795625 3.7225 4.40375 3 4 C2.01 3.67 1.02 3.34 0 3 C-0.33 3.99 -0.66 4.98 -1 6 C-2.65 6.33 -4.3 6.66 -6 7 C-5.34 6.01 -4.68 5.02 -4 4 C-3.34 4 -2.68 4 -2 4 C-2 3.34 -2 2.68 -2 2 C-1.34 2 -0.68 2 0 2 C0 1.34 0 0.68 0 0 Z " fill="#596E87" transform="translate(339,289)"/>
<path d="M0 0 C0.66 0.33 1.32 0.66 2 1 C1.43697042 4.94120709 0.3208055 7.7508723 -2 11 C-2.66 11 -3.32 11 -4 11 C-4.2475 11.7425 -4.495 12.485 -4.75 13.25 C-6.09147301 16.20124062 -7.60905526 17.84814974 -10 20 C-9.67 18.02 -9.34 16.04 -9 14 C-8.34 14 -7.68 14 -7 14 C-6.22227595 11.66682784 -5.57584432 9.38564077 -5 7 C-3.68 7 -2.36 7 -1 7 C-0.67 4.69 -0.34 2.38 0 0 Z " fill="#455E7E" transform="translate(273,217)"/>
<path d="M0 0 C-2.75545698 1.48663983 -5.27010688 2.4150229 -8.328125 3.0703125 C-9.12734375 3.24433594 -9.9265625 3.41835937 -10.75 3.59765625 C-11.575 3.77167969 -12.4 3.94570312 -13.25 4.125 C-14.09046875 4.30675781 -14.9309375 4.48851562 -15.796875 4.67578125 C-17.86355111 5.12199541 -19.93164277 5.56164445 -22 6 C-22 5.34 -22 4.68 -22 4 C-20.25093469 3.35163958 -18.50070781 2.70641216 -16.75 2.0625 C-15.77546875 1.70285156 -14.8009375 1.34320313 -13.796875 0.97265625 C-8.62609009 -0.82556364 -5.49443576 -0.95096004 0 0 Z " fill="#495F80" transform="translate(352,221)"/>
<path d="M0 0 C0.66 0.33 1.32 0.66 2 1 C-1.42105263 10.21052632 -1.42105263 10.21052632 -5 12 C-5.66 11.67 -6.32 11.34 -7 11 C-7 11.66 -7 12.32 -7 13 C-7.66 12.67 -8.32 12.34 -9 12 C-6.03 8.04 -3.06 4.08 0 0 Z " fill="#3B5B81" transform="translate(180,206)"/>
<path d="M0 0 C0.66 0 1.32 0 2 0 C2.14546783 3.24952748 2.2341168 6.49821713 2.3125 9.75 C2.3753418 11.13058594 2.3753418 11.13058594 2.43945312 12.5390625 C2.56332139 19.37659099 2.56332139 19.37659099 -0.34375 22.59375 C-2.96410595 23.98099727 -5.06435514 24.66449773 -8 25 C-7.505 23.515 -7.505 23.515 -7 22 C-5.68 22 -4.36 22 -3 22 C-3 21.34 -3 20.68 -3 20 C-2.34 20 -1.68 20 -1 20 C0.1482685 17.703463 0.11561175 16.41686833 0.09765625 13.8671875 C0.09443359 13.06152344 0.09121094 12.25585938 0.08789062 11.42578125 C0.07951172 10.58402344 0.07113281 9.74226562 0.0625 8.875 C0.05798828 8.02550781 0.05347656 7.17601562 0.04882812 6.30078125 C0.03702874 4.20049091 0.01909306 2.1002367 0 0 Z " fill="#7089A6" transform="translate(412,236)"/>
<path d="M0 0 C0.66 0.33 1.32 0.66 2 1 C1.67 1.99 1.34 2.98 1 4 C8.92 4 16.84 4 25 4 C25 4.33 25 4.66 25 5 C15.43 5 5.86 5 -4 5 C-2 1 -2 1 0 0 Z " fill="#11376D" transform="translate(211,310)"/>
<path d="M0 0 C0.66 0.33 1.32 0.66 2 1 C2 2.32 2 3.64 2 5 C1.34 5 0.68 5 0 5 C-0.2475 5.5775 -0.495 6.155 -0.75 6.75 C-2.16683317 9.3002997 -3.87627537 11.01785701 -6 13 C-6.33 12.01 -6.66 11.02 -7 10 C-5.56640625 7.51953125 -5.56640625 7.51953125 -3.5625 4.8125 C-2.90378906 3.91144531 -2.24507812 3.01039063 -1.56640625 2.08203125 C-1.04949219 1.39496094 -0.53257812 0.70789063 0 0 Z " fill="#426188" transform="translate(229,285)"/>
<path d="M0 0 C0.33 0 0.66 0 1 0 C1.4375 2.625 1.4375 2.625 1 6 C-1.843557 9.32512714 -4.85171838 11.61723946 -9 13 C-9 12.34 -9 11.68 -9 11 C-8.34 11 -7.68 11 -7 11 C-6.71125 10.236875 -6.4225 9.47375 -6.125 8.6875 C-5 6 -5 6 -3 3 C-2.34 3 -1.68 3 -1 3 C-0.67 2.01 -0.34 1.02 0 0 Z " fill="#446187" transform="translate(275,224)"/>
<path d="M0 0 C0 4.33382618 -0.82600788 7.13866759 -3.3125 10.6875 C-3.72113281 11.28949219 -4.12976563 11.89148438 -4.55078125 12.51171875 C-6.2913441 14.29919704 -7.57064587 14.61151053 -10 15 C-9.34 13.35 -8.68 11.7 -8 10 C-7.34 10 -6.68 10 -6 10 C-5.7525 9.278125 -5.505 8.55625 -5.25 7.8125 C-3.89016326 4.75286734 -2.17082246 2.5326262 0 0 Z " fill="#5C7593" transform="translate(295,197)"/>
<path d="M0 0 C-2.13714399 2.37682369 -3.93778054 3.59931002 -6.9375 4.6875 C-7.60652344 4.93886719 -8.27554687 5.19023437 -8.96484375 5.44921875 C-11 6 -11 6 -15 6 C-15 5.01 -15 4.02 -15 3 C-13.7625 2.71125 -12.525 2.4225 -11.25 2.125 C-8.82991284 1.53171585 -6.91478895 0.95624297 -4.6875 -0.1875 C-3 -1 -3 -1 0 0 Z " fill="#436385" transform="translate(412,282)"/>
<path d="M0 0 C0.33 0 0.66 0 1 0 C1.33 2.31 1.66 4.62 2 7 C1.401875 7.268125 0.80375 7.53625 0.1875 7.8125 C-1.97224808 8.98493467 -3.35790256 10.19369282 -5 12 C-5.66 11.67 -6.32 11.34 -7 11 C-7 10.34 -7 9.68 -7 9 C-6.34 9 -5.68 9 -5 9 C-4.731875 8.2575 -4.46375 7.515 -4.1875 6.75 C-3.05336685 4.12358639 -1.84835933 2.16981312 0 0 Z " fill="#395B80" transform="translate(283,213)"/>
<path d="M0 0 C5.28 0 10.56 0 16 0 C14.875 6.75 14.875 6.75 12 9 C12 6.69 12 4.38 12 2 C8.04 1.67 4.08 1.34 0 1 C0 0.67 0 0.34 0 0 Z " fill="#707F9B" transform="translate(356,293)"/>
<path d="M0 0 C3.37462715 0.54723683 5.08235 1.0549 8 3 C8.51171875 5.1640625 8.51171875 5.1640625 8.6875 7.625 C8.78611328 8.85089844 8.78611328 8.85089844 8.88671875 10.1015625 C8.92410156 10.72804687 8.96148437 11.35453125 9 12 C5.91910327 9.22719294 4.31224548 6.93673644 3 3 C2.34 3 1.68 3 1 3 C0.67 2.01 0.34 1.02 0 0 Z " fill="#3A5C81" transform="translate(228,208)"/>
<path d="M0 0 C-1.125 1.9375 -1.125 1.9375 -3 4 C-4.98821313 4.39764263 -6.98944339 4.73775349 -9 5 C-9.33 5.66 -9.66 6.32 -10 7 C-11.32 6.67 -12.64 6.34 -14 6 C-12.70982586 5.01886757 -11.41780894 4.04015801 -10.125 3.0625 C-9.04605469 2.24458984 -9.04605469 2.24458984 -7.9453125 1.41015625 C-4.79663879 -0.87231606 -3.68795134 -1.1063854 0 0 Z " fill="#395B7F" transform="translate(324,172)"/>
<path d="M0 0 C0.99 0.33 1.98 0.66 3 1 C1.64978174 5.41889613 -0.26115668 7.34345343 -4 10 C-4.66 9.67 -5.32 9.34 -6 9 C-4.16172132 5.84866512 -2.24027294 2.88035092 0 0 Z " fill="#093568" transform="translate(219,299)"/>
<path d="M0 0 C2.62538284 0.14053872 5.25017427 0.28718947 7.875 0.4375 C8.99455078 0.49647461 8.99455078 0.49647461 10.13671875 0.55664062 C15.7734375 0.88671875 15.7734375 0.88671875 18 2 C18.75 4.4375 18.75 4.4375 19 7 C18.34 7.66 17.68 8.32 17 9 C17 7.68 17 6.36 17 5 C15.68 4.67 14.36 4.34 13 4 C13 3.34 13 2.68 13 2 C11.783125 2.020625 10.56625 2.04125 9.3125 2.0625 C6.08022678 2.06824116 3.15065259 1.78766315 0 1 C0 0.67 0 0.34 0 0 Z " fill="#062954" transform="translate(350,293)"/>
<path d="M0 0 C8.91 0 17.82 0 27 0 C26.01 1.65 25.02 3.3 24 5 C23.34 4.01 22.68 3.02 22 2 C19.68246412 1.49156938 19.68246412 1.49156938 16.9921875 1.48828125 C16.00605469 1.45283203 15.01992187 1.41738281 14.00390625 1.38085938 C12.45509766 1.34702148 12.45509766 1.34702148 10.875 1.3125 C9.31458984 1.26125977 9.31458984 1.26125977 7.72265625 1.20898438 C5.14854493 1.12632942 2.57478171 1.05723845 0 1 C0 0.67 0 0.34 0 0 Z " fill="#23C5D5" transform="translate(131,236)"/>
<path d="M0 0 C0.66 0.99 1.32 1.98 2 3 C0.69791667 4.49739583 -0.60416667 5.99479167 -1.90625 7.4921875 C-3.19572458 8.95936421 -3.19572458 8.95936421 -3 11 C-4.32 10.67 -5.64 10.34 -7 10 C-5.33248852 6.05860922 -2.77289351 3.2107188 0 0 Z " fill="#1E4278" transform="translate(249,260)"/>
<path d="M0 0 C0 0.99 0 1.98 0 3 C-3.05269846 4.52634923 -5.75845689 3.83794444 -9.125 3.5625 C-10.40632812 3.46066406 -11.68765625 3.35882813 -13.0078125 3.25390625 C-14.48894531 3.12822266 -14.48894531 3.12822266 -16 3 C-16 2.34 -16 1.68 -16 1 C-8.08 0.505 -8.08 0.505 0 0 Z " fill="#52D9E5" transform="translate(147,249)"/>
<path d="M0 0 C0 0.99 0 1.98 0 3 C0.66 3.33 1.32 3.66 2 4 C0.69593116 6.01920337 -0.63823419 8.01924973 -2 10 C-2.33 10 -2.66 10 -3 10 C-3 8.35 -3 6.7 -3 5 C-3.99 4.67 -4.98 4.34 -6 4 C-2.25 0 -2.25 0 0 0 Z " fill="#295788" transform="translate(330,197)"/>
<path d="M0 0 C1.65 0 3.3 0 5 0 C4.01 1.98 3.02 3.96 2 6 C1.34 6 0.68 6 0 6 C-0.66 7.65 -1.32 9.3 -2 11 C-2.95465783 8.83032311 -3.14401212 7.43671207 -2.3984375 5.17578125 C-1.64129615 3.4315257 -0.82390802 1.71372869 0 0 Z " fill="#436589" transform="translate(187,235)"/>
<path d="M0 0 C0.66 0 1.32 0 2 0 C2 0.66 2 1.32 2 2 C2.66 2 3.32 2 4 2 C4.33 2.99 4.66 3.98 5 5 C3.125 8.1875 3.125 8.1875 1 11 C0.67 11 0.34 11 0 11 C-0.19491452 9.54263913 -0.38069358 8.08405407 -0.5625 6.625 C-0.66691406 5.81289062 -0.77132813 5.00078125 -0.87890625 4.1640625 C-1 2 -1 2 0 0 Z " fill="#2A5078" transform="translate(258,233)"/>
<path d="M0 0 C2.87602455 -0.10852923 5.74790832 -0.1875515 8.625 -0.25 C9.43324219 -0.28351563 10.24148437 -0.31703125 11.07421875 -0.3515625 C16.7185737 -0.44334063 19.62086544 0.40032305 24 4 C21 5 21 5 18 4 C18 3.34 18 2.68 18 2 C12.06 1.67 6.12 1.34 0 1 C0 0.67 0 0.34 0 0 Z " fill="#5DD7E3" transform="translate(93,217)"/>
<path d="M0 0 C7.92 0 15.84 0 24 0 C24 0.33 24 0.66 24 1 C16.41 1 8.82 1 1 1 C0.67 2.32 0.34 3.64 0 5 C-0.66 5 -1.32 5 -2 5 C-1.34 3.35 -0.68 1.7 0 0 Z " fill="#37C7D7" transform="translate(88,252)"/>
<path d="M0 0 C1.32 0.33 2.64 0.66 4 1 C1.69 4.3 -0.62 7.6 -3 11 C-3.33 9.68 -3.66 8.36 -4 7 C-3.34 7 -2.68 7 -2 7 C-2.33 5.68 -2.66 4.36 -3 3 C-2.34 3 -1.68 3 -1 3 C-0.67 2.01 -0.34 1.02 0 0 Z " fill="#4A688F" transform="translate(302,235)"/>
<path d="M0 0 C7.48291572 6.15034169 7.48291572 6.15034169 10 10 C7.36 9.34 4.72 8.68 2 8 C1.34 5.36 0.68 2.72 0 0 Z " fill="#54DAE6" transform="translate(120,198)"/>
<path d="M0 0 C1.65 0.99 3.3 1.98 5 3 C4.67 5.31 4.34 7.62 4 10 C2.35 10.66 0.7 11.32 -1 12 C-0.67 11.01 -0.34 10.02 0 9 C0.66 9 1.32 9 2 9 C2.25030977 6.58380177 2.25030977 6.58380177 2 4 C1.01 3.34 0.02 2.68 -1 2 C-0.67 1.34 -0.34 0.68 0 0 Z " fill="#5E7290" transform="translate(409,224)"/>
<path d="M0 0 C6.04433574 1.35997554 9.63494136 4.85651794 14 9 C13.01 9.495 13.01 9.495 12 10 C7.29508197 7.59016393 7.29508197 7.59016393 6 5 C3.97536745 4.34786708 3.97536745 4.34786708 2 4 C2 3.34 2 2.68 2 2 C1.34 2 0.68 2 0 2 C0 1.34 0 0.68 0 0 Z " fill="#59D7E1" transform="translate(106,188)"/>
<path d="M0 0 C3.67758005 3.28355362 5.81389118 6.62778237 8 11 C7.67 11.66 7.34 12.32 7 13 C6.01 12.67 5.02 12.34 4 12 C3.67 11.01 3.34 10.02 3 9 C2.484375 7.824375 1.96875 6.64875 1.4375 5.4375 C0 2 0 2 0 0 Z " fill="#667A96" transform="translate(366,181)"/>
<path d="M0 0 C0.8971875 0.5259375 0.8971875 0.5259375 1.8125 1.0625 C1.1525 1.7225 0.4925 2.3825 -0.1875 3.0625 C-0.5175 4.0525 -0.8475 5.0425 -1.1875 6.0625 C-2.1775 5.7325 -3.1675 5.4025 -4.1875 5.0625 C-4.1875 4.4025 -4.1875 3.7425 -4.1875 3.0625 C-5.1775 2.7325 -6.1675 2.4025 -7.1875 2.0625 C-4.72093412 -0.40406588 -3.34389711 -1.43309876 0 0 Z " fill="#2A5482" transform="translate(311.1875,306.9375)"/>
<path d="M0 0 C0.66 0.33 1.32 0.66 2 1 C0.50902342 4.7952131 -1.75700849 6.61042731 -5 9 C-4.125 3.25 -4.125 3.25 -3 1 C-2.01 0.67 -1.02 0.34 0 0 Z " fill="#2F4D70" transform="translate(366,301)"/>
<path d="M0 0 C1.7073756 0.97465571 3.38379412 2.0031086 5.0546875 3.0390625 C5.0546875 3.3690625 5.0546875 3.6990625 5.0546875 4.0390625 C0.51210075 4.4176114 0.51210075 4.4176114 -1.7578125 2.5390625 C-5.10755966 0.24209302 -7.94244904 0.83891933 -11.9453125 1.0390625 C-9.58237155 -3.68681941 -3.92992782 -1.94128964 0 0 Z " fill="#71D7E2" transform="translate(87.9453125,212.9609375)"/>
<path d="M0 0 C1.65 0.33 3.3 0.66 5 1 C3.74821404 3.50357192 2.00018842 5.06433379 0 7 C-1.32 5.35 -2.64 3.7 -4 2 C-2.68 2 -1.36 2 0 2 C0 1.34 0 0.68 0 0 Z " fill="#2DD9E5" transform="translate(125,207)"/>
<path d="M0 0 C1.2065625 0.0309375 1.2065625 0.0309375 2.4375 0.0625 C0.88249019 3.87934226 -1.59845495 6.25445732 -4.5625 9.0625 C-3.56521739 0.08695652 -3.56521739 0.08695652 0 0 Z " fill="#4D6E95" transform="translate(212.5625,204.9375)"/>
<path d="M0 0 C3.63 0.66 7.26 1.32 11 2 C11 2.33 11 2.66 11 3 C9.01432292 2.93489583 7.02864583 2.86979167 5.04296875 2.8046875 C2.68640281 2.86745538 2.68640281 2.86745538 0 5 C-0.99 4.67 -1.98 4.34 -3 4 C-2.01 2.68 -1.02 1.36 0 0 Z " fill="#385D85" transform="translate(338,241)"/>
<path d="M0 0 C0.99 0.33 1.98 0.66 3 1 C1.625 3.5 1.625 3.5 0 6 C-0.66 6 -1.32 6 -2 6 C-2.28875 6.804375 -2.5775 7.60875 -2.875 8.4375 C-4 11 -4 11 -6 12 C-6 10.68 -6 9.36 -6 8 C-5.34 8 -4.68 8 -4 8 C-3.67 7.01 -3.34 6.02 -3 5 C-2.34 5 -1.68 5 -1 5 C-0.67 3.35 -0.34 1.7 0 0 Z " fill="#526F91" transform="translate(314,220)"/>
<path d="M0 0 C2.97 0.495 2.97 0.495 6 1 C6 1.66 6 2.32 6 3 C3.625 4.6875 3.625 4.6875 1 6 C0.34 5.67 -0.32 5.34 -1 5 C-0.67 3.35 -0.34 1.7 0 0 Z " fill="#36557B" transform="translate(354,309)"/>
<path d="M0 0 C0.66 0.99 1.32 1.98 2 3 C1.3125 4.9375 1.3125 4.9375 0 7 C-2.625 7.75 -2.625 7.75 -5 8 C-3.62845496 5.04590299 -2.01136276 2.55991624 0 0 Z " fill="#486990" transform="translate(241,270)"/>
<path d="M0 0 C1.32 0 2.64 0 4 0 C4 1.32 4 2.64 4 4 C0.625 4.625 0.625 4.625 -3 5 C-3.66 4.34 -4.32 3.68 -5 3 C-3.68 3 -2.36 3 -1 3 C-0.67 2.01 -0.34 1.02 0 0 Z " fill="#083466" transform="translate(395,258)"/>
<path d="M0 0 C-1.38081223 4.1424367 -3.59825558 5.32203099 -7 8 C-7 5.35220307 -6.82804069 3.48412207 -6 1 C-4 0 -4 0 0 0 Z " fill="#48688E" transform="translate(222,197)"/>
<path d="M0 0 C0.99 0.33 1.98 0.66 3 1 C-0.0684847 3.97550031 -1.46236331 4.96474513 -5.8125 5.25 C-6.864375 5.1675 -7.91625 5.085 -9 5 C-9.33 4.34 -9.66 3.68 -10 3 C-8.72125 2.87625 -7.4425 2.7525 -6.125 2.625 C-2.65209064 2.30957601 -2.65209064 2.30957601 0 0 Z " fill="#4BD1DE" transform="translate(87,194)"/>
<path d="M0 0 C0.66 0 1.32 0 2 0 C2.103125 0.928125 2.20625 1.85625 2.3125 2.8125 C3.0070192 6.03254358 3.47740939 7.02579865 6 9 C2.74456771 8.65120368 1.98126893 7.97866739 -0.25 5.4375 C-1.11625 4.2309375 -1.11625 4.2309375 -2 3 C-1 1 -1 1 0 0 Z " fill="#567193" transform="translate(252,236)"/>
<path d="M0 0 C1.875 0.1875 1.875 0.1875 4 1 C5.1875 3.375 5.1875 3.375 6 6 C6.33 6.99 6.66 7.98 7 9 C7.66 9.33 8.32 9.66 9 10 C8.01 10 7.02 10 6 10 C6 9.34 6 8.68 6 8 C5.34 8 4.68 8 4 8 C0 2.58823529 0 2.58823529 0 0 Z " fill="#617899" transform="translate(242,226)"/>
<path d="M0 0 C1.32 0 2.64 0 4 0 C4 0.66 4 1.32 4 2 C3.34 2 2.68 2 2 2 C1.7525 2.598125 1.505 3.19625 1.25 3.8125 C-0.16370012 6.28647521 -1.65055383 7.43370255 -4 9 C-4 8.01 -4 7.02 -4 6 C-3.34 6 -2.68 6 -2 6 C-1.34 4.02 -0.68 2.04 0 0 Z " fill="#557295" transform="translate(172,256)"/>
<path d="M0 0 C1.98 0 3.96 0 6 0 C6 1.32 6 2.64 6 4 C6.99 4.66 7.98 5.32 9 6 C6.69 6.33 4.38 6.66 2 7 C2.66 6.67 3.32 6.34 4 6 C2.68 4.02 1.36 2.04 0 0 Z " fill="#376590" transform="translate(395,256)"/>
<path d="M0 0 C0.66 0.33 1.32 0.66 2 1 C1.49701212 5.40114397 -0.08772731 7.71195019 -3 11 C-3 10.34 -3 9.68 -3 9 C-3.66 9 -4.32 9 -5 9 C-5 8.34 -5 7.68 -5 7 C-3.68 7 -2.36 7 -1 7 C-0.67 4.69 -0.34 2.38 0 0 Z " fill="#556D8C" transform="translate(273,217)"/>
<path d="M0 0 C0.66 0.66 1.32 1.32 2 2 C-1.63 2.66 -5.26 3.32 -9 4 C-8.67 3.01 -8.34 2.02 -8 1 C-5.23749964 -0.38125018 -3.05268901 -0.19079306 0 0 Z " fill="#10D7E1" transform="translate(84,213)"/>
<path d="M0 0 C1.60725635 3.21451269 1.05748185 6.43612536 1 10 C1.99 10.33 2.98 10.66 4 11 C3.34 11.66 2.68 12.32 2 13 C-2.048 7.848 -2.048 7.848 -1.8125 3.6875 C-1 1 -1 1 0 0 Z " fill="#71D9E2" transform="translate(74,185)"/>
<path d="M0 0 C0.33 1.32 0.66 2.64 1 4 C0.34 4 -0.32 4 -1 4 C-1 5.32 -1 6.64 -1 8 C-2.32 8 -3.64 8 -5 8 C-5 8.66 -5 9.32 -5 10 C-5.66 9.67 -6.32 9.34 -7 9 C-6.21654285 7.82780457 -5.42297164 6.66236332 -4.625 5.5 C-4.18414062 4.8503125 -3.74328125 4.200625 -3.2890625 3.53125 C-2.65097656 2.77328125 -2.65097656 2.77328125 -2 2 C-1.34 2 -0.68 2 0 2 C0 1.34 0 0.68 0 0 Z " fill="#5C7794" transform="translate(309,179)"/>
<path d="M0 0 C0.6875 1.75 0.6875 1.75 1 4 C-0.43407725 6.64172124 -1.3211374 7.76724711 -4.1875 8.75 C-5.0846875 8.87375 -5.0846875 8.87375 -6 9 C-4.47291037 5.56404834 -2.40072955 2.88087546 0 0 Z " fill="#4F6D8E" transform="translate(202,177)"/>
<path d="M0 0 C-5.07086614 2.71653543 -5.07086614 2.71653543 -8 3 C-9.75 1.5625 -9.75 1.5625 -11 0 C-7.18243176 -1.37432457 -3.92744671 -0.67975039 0 0 Z " fill="#2E4D72" transform="translate(352,221)"/>
<path d="M0 0 C0.99 0.33 1.98 0.66 3 1 C3.33 3.31 3.66 5.62 4 8 C2.02 7.01 0.04 6.02 -2 5 C-1.34 3.35 -0.68 1.7 0 0 Z " fill="#09D9EC" transform="translate(128,209)"/>
<path d="M0 0 C1.32 0.33 2.64 0.66 4 1 C4 1.66 4 2.32 4 3 C4.66 3 5.32 3 6 3 C6 3.66 6 4.32 6 5 C6.99 5.33 7.98 5.66 9 6 C8.67 6.99 8.34 7.98 8 9 C6.66368764 7.6905332 5.33102075 6.37734515 4 5.0625 C3.2575 4.33160156 2.515 3.60070312 1.75 2.84765625 C0 1 0 1 0 0 Z " fill="#5DDCE5" transform="translate(112,200)"/>
<path d="M0 0 C0 0.99 0 1.98 0 3 C-1.53125 4.38671875 -1.53125 4.38671875 -3.5 5.6875 C-4.47453125 6.34298828 -4.47453125 6.34298828 -5.46875 7.01171875 C-5.9740625 7.33785156 -6.479375 7.66398437 -7 8 C-7.66 7.67 -8.32 7.34 -9 7 C-6.03 4.69 -3.06 2.38 0 0 Z " fill="#58D6DD" transform="translate(117,267)"/>
<path d="M0 0 C0.99 0 1.98 0 3 0 C2.67 1.32 2.34 2.64 2 4 C1.34 4 0.68 4 0 4 C-0.33 4.99 -0.66 5.98 -1 7 C-1.66 6.67 -2.32 6.34 -3 6 C-2 4 -1 2 0 0 Z " fill="#3D5980" transform="translate(260,244)"/>
<path d="M0 0 C0.99 0.33 1.98 0.66 3 1 C2.67 1.99 2.34 2.98 2 4 C2.66 4 3.32 4 4 4 C3.67 5.32 3.34 6.64 3 8 C1.35 6.02 -0.3 4.04 -2 2 C-1.34 2 -0.68 2 0 2 C0 1.34 0 0.68 0 0 Z " fill="#56DFEA" transform="translate(116,227)"/>
<path d="M0 0 C0.99 0 1.98 0 3 0 C3 1.32 3 2.64 3 4 C3.99 4.66 4.98 5.32 6 6 C6 6.66 6 7.32 6 8 C4.68 8 3.36 8 2 8 C1.34 5.36 0.68 2.72 0 0 Z " fill="#4E6481" transform="translate(345,210)"/>
<path d="M0 0 C1 2 1 2 0.0625 5.125 C-0.288125 6.07375 -0.63875 7.0225 -1 8 C-1.99 7.67 -2.98 7.34 -4 7 C-4 7.66 -4 8.32 -4 9 C-4.66 8.67 -5.32 8.34 -6 8 C-4.02 5.36 -2.04 2.72 0 0 Z " fill="#536E93" transform="translate(189,194)"/>
<path d="M0 0 C0.66 0.66 1.32 1.32 2 2 C-0.8125 4.0625 -0.8125 4.0625 -4 6 C-4.99 5.67 -5.98 5.34 -7 5 C-4.63707344 2.47411298 -3.33537489 1.11179163 0 0 Z " fill="#053267" transform="translate(301,195)"/>
<path d="M0 0 C2.62187494 1.04874998 3.79371361 1.64931313 5.25 4.125 C5.4975 4.74375 5.745 5.3625 6 6 C4.35 5.67 2.7 5.34 1 5 C0.67 3.35 0.34 1.7 0 0 Z " fill="#34567B" transform="translate(240,175)"/>
<path d="M0 0 C2.31 0.33 4.62 0.66 7 1 C7 1.66 7 2.32 7 3 C7.99 3.33 8.98 3.66 10 4 C2.25 3.125 2.25 3.125 0 2 C0 1.34 0 0.68 0 0 Z " fill="#4F688E" transform="translate(337,259)"/>
<path d="M0 0 C0 3.59857954 -0.95830515 5.09451118 -3 8 C-3.66 8 -4.32 8 -5 8 C-4.67 6.35 -4.34 4.7 -4 3 C-3.34 3 -2.68 3 -2 3 C-2 2.34 -2 1.68 -2 1 C-1.34 0.67 -0.68 0.34 0 0 Z " fill="#32567A" transform="translate(153,243)"/>
<path d="M0 0 C0.99 0.495 0.99 0.495 2 1 C2 1.66 2 2.32 2 3 C2.66 3 3.32 3 4 3 C4 3.66 4 4.32 4 5 C4.66 5.33 5.32 5.66 6 6 C5.34 6.66 4.68 7.32 4 8 C2 6.8125 2 6.8125 0 5 C-0.25 2.3125 -0.25 2.3125 0 0 Z " fill="#5D7592" transform="translate(328,227)"/>
<path d="M0 0 C1.43088528 2.86177057 0.59991697 4.93375773 0 8 C-1.65 8 -3.3 8 -5 8 C-1.125 1.125 -1.125 1.125 0 0 Z " fill="#4E6C8E" transform="translate(301,189)"/>
<path d="M0 0 C0.99 0.33 1.98 0.66 3 1 C2.67 1.66 2.34 2.32 2 3 C1.34 3 0.68 3 0 3 C-0.66 4.65 -1.32 6.3 -2 8 C-2.33 8 -2.66 8 -3 8 C-3 6.35 -3 4.7 -3 3 C-2.34 3 -1.68 3 -1 3 C-0.67 2.01 -0.34 1.02 0 0 Z " fill="#466387" transform="translate(271,278)"/>
<path d="M0 0 C0.33 0 0.66 0 1 0 C1.66 3.3 2.32 6.6 3 10 C1.68 9.67 0.36 9.34 -1 9 C-0.67 6.03 -0.34 3.06 0 0 Z " fill="#60748F" transform="translate(378,206)"/>
<path d="M0 0 C1.5 1.375 1.5 1.375 3 3 C3 3.66 3 4.32 3 5 C3.66 5 4.32 5 5 5 C5.66 6.32 6.32 7.64 7 9 C5.1875 8.875 5.1875 8.875 3 8 C0 2.96428571 0 2.96428571 0 0 Z " fill="#4D678A" transform="translate(249,185)"/>
<path d="M0 0 C0.99 0.33 1.98 0.66 3 1 C1.68 3.31 0.36 5.62 -1 8 C-1.66 6.68 -2.32 5.36 -3 4 C-2.34 3.67 -1.68 3.34 -1 3 C-0.67 2.01 -0.34 1.02 0 0 Z " fill="#053161" transform="translate(310,179)"/>
<path d="M0 0 C0 1.65 0 3.3 0 5 C-0.66 5 -1.32 5 -2 5 C-2.33 4.34 -2.66 3.68 -3 3 C-5.02463255 2.34786708 -5.02463255 2.34786708 -7 2 C-4.35261084 0.5393715 -3.10551666 0 0 0 Z " fill="#486388" transform="translate(413,263)"/>
<path d="M0 0 C2.31 0 4.62 0 7 0 C7.33 0.66 7.66 1.32 8 2 C5.69 2.33 3.38 2.66 1 3 C0.67 2.01 0.34 1.02 0 0 Z " fill="#3ED7E8" transform="translate(114,253)"/>
<path d="M0 0 C2.31 0 4.62 0 7 0 C6.67 0.99 6.34 1.98 6 3 C3.69 2.67 1.38 2.34 -1 2 C-0.67 1.34 -0.34 0.68 0 0 Z " fill="#38577B" transform="translate(340,236)"/>
<path d="M0 0 C0.33 0.99 0.66 1.98 1 3 C-1.475 4.485 -1.475 4.485 -4 6 C-4 3 -4 3 -3 1 C-2.01 0.67 -1.02 0.34 0 0 Z " fill="#436385" transform="translate(290,206)"/>
<path d="M0 0 C3.77545388 1.09068668 6.47043472 1.9083091 9 5 C3.46153846 4.50769231 3.46153846 4.50769231 1.125 1.9375 C0.75375 1.298125 0.3825 0.65875 0 0 Z " fill="#4B6786" transform="translate(353,172)"/>
<path d="M0 0 C0.33 0.66 0.66 1.32 1 2 C0.0625 4.625 0.0625 4.625 -1 7 C-2.32 6.67 -3.64 6.34 -5 6 C-3.35 4.02 -1.7 2.04 0 0 Z " fill="#526B91" transform="translate(219,299)"/>
<path d="M0 0 C0.33 0.66 0.66 1.32 1 2 C3.52733235 2.65555119 3.52733235 2.65555119 6 3 C6.33 3.99 6.66 4.98 7 6 C2.25 5.25 2.25 5.25 0 3 C0 2.01 0 1.02 0 0 Z " fill="#325177" transform="translate(329,278)"/>
<path d="M0 0 C1.43088528 2.86177057 0.59991697 4.93375773 0 8 C-1.32 7.67 -2.64 7.34 -4 7 C-2.79618552 4.50638429 -1.54571278 2.31856917 0 0 Z " fill="#5E779C" transform="translate(246,263)"/>
<path d="M0 0 C2.9719385 1.12451727 5.33440687 2.22293791 8 4 C6.35 4.33 4.7 4.66 3 5 C2.01 3.35 1.02 1.7 0 0 Z " fill="#6980A1" transform="translate(330,237)"/>
<path d="M0 0 C0.99 0 1.98 0 3 0 C2.34 1.65 1.68 3.3 1 5 C0.01 5 -0.98 5 -2 5 C-1.34 3.35 -0.68 1.7 0 0 Z " fill="#284D80" transform="translate(407,231)"/>
</svg>
